<svg version="1.1" viewBox="0 0 1277 648" xml:space="preserve" xmlns="http://www.w3.org/2000/svg" xmlns:xlink="http://www.w3.org/1999/xlink"><defs><rect id="SVGID_1_" width="2400" height="1800"/></defs>
<style type="text/css">
.st0{fill:#FECE0B;}
.st1{fill:#BCBEC0;}
.st2{fill:#F1F2F2;}
.st7{fill:#CCCCCC;}
.st8{fill:#FFFFFF;}
.st11{fill:#E8E5C5;}
.st12{fill:#8F9194;}
.st14{fill:#F7F9FC;}
.st15{fill:#A8A9AE;}
.st18{fill:#ED1C24;}
.st19{fill:#FFF200;}
.st20{fill:#00A651;}
.st21{fill:#00AEEF;}
.st22{fill:#EC008C;}
.st23{fill:#BE1E2D;}
.st24{fill:#FBB040;}
.st25{fill:#F9ED32;}
.st26{fill:#D7DF23;}
.st27{fill:#8DC63F;}
.st28{fill:#009444;}
.st29{fill:#006838;}
.st30{fill:#2BB673;}
.st31{fill:#27AAE1;}
.st32{fill:#1C75BC;}
.st33{fill:#C2B59B;}
.st34{fill:#9B8579;}
.st35{fill:#594A42;}
.st36{fill:#C49A6C;}
.st37{fill:#C4C4C3;}
.st38{fill:#F0B6D2;}
.st39{fill:url(#SVGID_1_);}
.st40{fill:#D1D3D4;}
.st41{fill:#E3E3E3;}
.st43{fill:#808184;}
.st44{fill:#1794A3;}
.st45{fill:#19ACC3;}
.st46{fill:#424143;}
.st47{opacity:0.3;fill:#DFE3E5;}
.st48{opacity:0.5;fill:#DFE3E5;}
.st49{fill:#414042;}
.st50{fill:#E4F5FD;}
.st51{fill:#FEC057;}
.st52{fill:#FBC9C5;}
.st53{fill:#5F3A16;}
.st54{fill:none;}
.st55{fill:#E17F69;}
.st56{fill:#A7A9AC;}
.st57{fill:#48484A;}
.st59{fill:#F2F2F2;}
.st60{fill:#E7E7E7;}
.st61{fill:#D1D2D3;}
.st62{fill:#3E4999;}
.st64{fill:#7594A3;}
.st65{fill:#8ED2CD;}
.st66{fill:#6C97C9;}
.st67{fill:#61CBE9;}
.st68{fill:#69A3C4;}
.st69{fill:#B2DEF6;}
.st70{fill:#F9BD1A;}
.st71{fill:#F8EB32;}
.st72{fill:#6D94A2;}
.st73{fill:#54747F;}
.st74{fill:#43463A;}
.st75{fill:#2B2D25;}
.st77{fill:#EBE8DE;}
.st79{fill:#DDDDCA;}
.st80{fill:#86B9C6;}
.st81{fill:#63B0C5;}
.st82{opacity:0.78;}
.st83{fill:#E8B993;}
.st84{fill:#FED6B7;}
.st85{fill-rule:evenodd;clip-rule:evenodd;fill:#58595B;}
.st86{fill-rule:evenodd;clip-rule:evenodd;fill:#9EADBB;}
.st87{fill:#6D6E71;}
.st88{fill:#58595B;}
.st89{fill:#E0E4E6;}
</style>
<g transform="matrix(.4208 0 0 .4326 131.3 -91.36)">
<clipPath id="SVGID_2_">
<use width="100%" height="100%" xlink:href="#SVGID_1_"/>
</clipPath>
<g transform="matrix(1.133 0 0 1.119 -155.2 -19.93)" clip-path="url(#SVGID_2_)">
<path d="m2112 1113c-46.59-345.2-474.8-257.9-698.4-384.4-132.1-74.75-169.2-174.3-394.9-266.1-177.9-72.33-407.5-71.84-480.4 143.2-28.73 84.65-17.48 181.1-58.36 260.6-59.79 116.3-207.2 143.1-241.1 278.6-15.42 61.63-5.88 129.2 26.46 183.9 45.77 77.39 131.2 123.3 217.7 148 111.2 31.68 232.7 50.48 347.6 63.86h743.7c130.3-5.18 260.2-26.9 375.8-107.7 102-71.23 179.3-192 162-319.9z" fill="#94c0a7"/>
<path d="m1617 573.4c.55 7.54-1.33 16-6.18 15.28-6.33-.95-7.24-12.92-4.69-20.39-9.69-4.16-20.98-8-34.07-11.38 0 0-8.19 143.2 82.2 109.2-.01.01 33.89-55.86-37.26-92.72zm-9.29 40.45c-2.64 8.59-21.38-.32-20.62-7.62.84-8 24-3.38 20.62 7.62z" fill="#cfd68b"/>
<path d="m1572 557s-8.19 143.2 82.2 109.2c-16.03-40.13-82.2-109.2-82.2-109.2zm35.65 56.93c-2.64 8.59-21.38-.32-20.62-7.62.84-8 24-3.38 20.62 7.62z" fill="#c5cc78"/><g fill="#cfd68b">
<path d="m1696 814.2h-3.78c0-70.32-51.76-166.6-52.28-167.5l3.33-1.8c.52.96 52.73 98.06 52.73 169.3z"/>
<path d="m1697 875c-1.51-.81-2.48-2.75-3.04-6.09-4.56-27.24 17.47-152.1 68.73-207.6l2.78 2.57c-20.94 22.68-39.86 61.36-53.27 108.9-11.41 40.48-16.1 77.28-14.84 92.71.43 5.29 1.44 6.13 1.45 6.14z"/>
<path d="m1816 648.8c.5-18.79-1.11-34.55-1.11-34.55s-31.19 5.39-61.83 21.87c.02 8.1-1.83 20.7-7.53 21.45-4.94.65-5.75-7.6-5.7-13.6-2.23 1.47-4.4 3.02-6.56 4.64-35.2 26.32-8.7 76.68-8.01 76.79 28.53 5.14 63.8-.34 79.86-25.06 5.77-8.88 8.64-22.48 9.99-36.28-5.34 2.78-13.42 6.04-15.11 1.2-1.89-5.46 8.74-12.87 16-16.46zm-49.82-6.99c.95-5.32 3.54-7.29 6.2-6.83 2.64.49 4.37 3.25 3.41 8.57-.95 5.3-4.24 11.14-6.88 10.65-2.66-.46-3.7-7.09-2.73-12.39z"/>
<path d="m1689 819.5h-3.78c0-16.21 9.34-50.76 31.84-61.07 16.11-7.38 35.48-1.46 57.58 17.59l-2.47 2.87c-20.88-18-38.9-23.73-53.53-17.02-20.95 9.6-29.64 42.27-29.64 57.63z"/>
</g><path d="m1753 636.2c.02 8.1-1.83 20.7-7.53 21.45-4.94.65-5.75-7.6-5.7-13.6-2.23 1.47-4.4 3.02-6.56 4.64-35.2 26.32-8.7 76.68-8.01 76.79 0 0 10.46-43.01 89.62-111.1.01-.01-31.18 5.38-61.82 21.86z" fill="#c5cc78"/>
<polygon points="1637 812.1 1749 812.1 1733 929.3 1653 929.3" fill="#b8bfe8"/>
<polygon points="1675 929.3 1653 929.3 1637 812 1659 812" fill="#a399d3"/>
<linearGradient id="SVGID_3_" x1="1615" x2="1727" y1="823.8" y2="823.8" gradientTransform="matrix(1.046 -8e-4 8e-4 1.062 -54.73 -53.62)" gradientUnits="userSpaceOnUse">
<stop stop-color="#FCAE5C" offset="0"/>
<stop stop-color="#FFE75B" offset="1"/>
</linearGradient>
<path d="m1745 829.7-104.3.1c-3.64 0-6.6-2.95-6.6-6.59l-.01-12.21 117.4-.11.01 12.22c.01 3.64-2.94 6.59-6.58 6.59z" fill="url(#SVGID_3_)"/>
<path d="m1745 829.7-104.3.1c-3.64 0-6.6-2.95-6.6-6.59l-.01-12.21 117.4-.11.01 12.22c.01 3.63-2.93 6.58-6.58 6.59z" fill="#a399d3"/>
<path d="m1834 823.9c-8.03-2.96-19.78-9.4-18.45-15.31 1.17-5.13 9.62-2.9 15.53-.64-.64-2.74-1.37-5.47-2.17-8.19-13.12-44.45-72.62-36.71-72.97-36.09-15.53 26.33-23.06 63.19-4.51 88.15 6.66 8.94 19.05 16.79 32.19 23.17-.8-6.28-1.04-15.47 4.36-15.38 6.11.13 9.51 13.36 10.4 21.86 18.39 7.39 34.56 11.55 34.56 11.55s6.11-32.79 1.06-69.12zm-69.25 10.22c-6.04-.13-12.12-27.88 0-29.18 12.12-1.31 6.04 29.32 0 29.18z" fill="#cfd68b"/>
<path d="m1756 763.7c-15.53 26.33-23.06 63.19-4.51 88.15 6.66 8.94 19.05 16.79 32.19 23.17-.8-6.28-1.04-15.47 4.36-15.38 6.11.13 9.51 13.36 10.4 21.86 18.39 7.39 34.56 11.55 34.56 11.55-22.66-73.08-77-129.4-77-129.4z" fill="#c5cc78"/>
<g fill="#4caf50">
<path d="m1558 385.4h-15.12c-1.5 0-2.71-1.21-2.71-2.71s1.21-2.71 2.71-2.71h10.23l1.05-10.17c.15-1.49 1.51-2.58 2.97-2.42 1.49.15 2.57 1.48 2.42 2.97z"/>
<path d="m1518 385.4h-24.83c-1.5 0-2.71-1.21-2.71-2.71s1.21-2.71 2.71-2.71h24.83c1.5 0 2.71 1.21 2.71 2.71-.01 1.5-1.22 2.71-2.71 2.71zm-49.67 0h-24.83c-1.5 0-2.71-1.21-2.71-2.71s1.21-2.71 2.71-2.71h24.83c1.5 0 2.71 1.21 2.71 2.71s-1.21 2.71-2.71 2.71zm-49.67 0h-24.83c-1.5 0-2.71-1.21-2.71-2.71s1.21-2.71 2.71-2.71h24.83c1.5 0 2.71 1.21 2.71 2.71s-1.21 2.71-2.71 2.71z"/>
<path d="m1369 385.4h-15.67l1.6-15.59c.15-1.49 1.52-2.58 2.97-2.42 1.49.15 2.57 1.48 2.42 2.97l-.99 9.62h9.67c1.5 0 2.71 1.21 2.71 2.71s-1.22 2.71-2.71 2.71z"/>
<path d="m1361 340.7c-.09 0-.19 0-.28-.01-1.49-.15-2.57-1.48-2.42-2.97l3.29-32.05c.15-1.49 1.48-2.59 2.97-2.42 1.49.15 2.57 1.48 2.42 2.97l-3.29 32.05c-.14 1.4-1.32 2.43-2.69 2.43z"/>
<path d="m1368 276.6c-.09 0-.19 0-.28-.01-1.49-.15-2.57-1.48-2.42-2.97l1.54-15.04h15.12c1.5 0 2.71 1.21 2.71 2.71s-1.21 2.71-2.71 2.71h-10.23l-1.05 10.17c-.13 1.4-1.31 2.43-2.68 2.43z"/>
<path d="m1531 264h-24.83c-1.5 0-2.71-1.21-2.71-2.71s1.21-2.71 2.71-2.71h24.83c1.5 0 2.71 1.21 2.71 2.71s-1.21 2.71-2.71 2.71zm-49.66 0h-24.83c-1.5 0-2.71-1.21-2.71-2.71s1.21-2.71 2.71-2.71h24.83c1.5 0 2.71 1.21 2.71 2.71-.01 1.5-1.22 2.71-2.71 2.71zm-49.67 0h-24.83c-1.5 0-2.71-1.21-2.71-2.71s1.21-2.71 2.71-2.71h24.83c1.5 0 2.71 1.21 2.71 2.71s-1.21 2.71-2.71 2.71z"/>
<path d="m1567 276.6c-.09 0-.19 0-.28-.01-1.49-.15-2.57-1.48-2.42-2.97l.99-9.62h-9.67c-1.5 0-2.71-1.21-2.71-2.71s1.21-2.71 2.71-2.71h15.67l-1.6 15.59c-.15 1.4-1.32 2.43-2.69 2.43z"/>
<path d="m1561 340.7c-.09 0-.19 0-.28-.01-1.49-.15-2.57-1.48-2.42-2.97l3.29-32.05c.15-1.49 1.48-2.57 2.97-2.42s2.57 1.48 2.42 2.97l-3.29 32.05c-.15 1.4-1.32 2.43-2.69 2.43z"/>
</g>
<path d="m1482 930.9h-80.01l8.43-61.08 5.97-36.44h62.76l3.85 23.61 8.68 62.52c.97 5.97-3.63 11.39-9.68 11.39z" fill="#9d74ac"/>
<path d="m1482 930.9h-80.02l1.87-11.39 6.56-49.69 5.97-36.44h62.77l3.85 23.62 8.68 62.5c.97 5.98-3.63 11.4-9.68 11.4z" fill="#5f497f"/>
<path d="m1482 909.8c-.07 5.24-4.32 9.67-9.78 9.67h-76.47l1.87-11.39 4.69-38.3 5.97-36.44h62.77l3.85 23.62 6.81 51.11z" fill="#896399"/>
<polygon points="1474 857 1402 869.8 1408 833.3 1471 833.3" fill="#724e84"/>
<path d="m1698 500.6-31.99 339.3c-.06.54-.13 1.04-.28 1.55-1.14 4.48-5.34 7.93-9.95 7.93h-470.7c-4.64 0-8.15-3.41-8.43-7.93-.06-.51-.06-1.01 0-1.55l31.99-339.3c.51-5.24 5.05-9.47 10.23-9.47h470.7c5.11 0 8.93 4.23 8.43 9.47z" fill="#5f497f"/>
<path d="m1686 500.5-31.51 331.7c-.49 5.13-5.02 9.26-10.07 9.26h-463.5c-5.09 0-8.8-4.13-8.31-9.26l31.51-331.7c.49-5.13 4.98-9.26 10.07-9.26h463.5c5.06 0 8.8 4.13 8.31 9.26z" fill="#896399"/>
<path d="m1686 500.5-27.93 294h-481.9l27.93-294c.49-5.13 4.98-9.26 10.07-9.26h463.5c5.07 0 8.81 4.13 8.32 9.26z" fill="#724e84"/>
<ellipse transform="matrix(.6954 -.7187 .7187 .6954 -156.7 1266)" cx="1415" cy="817.8" rx="12.15" ry="11.05" fill="#5f497f"/>
<path d="m1665 841.5c-1.14 4.48-5.34 7.93-9.95 7.93h-470.7c-4.64 0-8.15-3.41-8.43-7.93z" fill="#5f497f"/>
<linearGradient id="SVGID_4_" x1="1333" x2="1492" y1="925.2" y2="925.2" gradientUnits="userSpaceOnUse">
<stop stop-color="#BA90A8" offset="0"/>
<stop stop-color="#D1ABBA" offset="1"/>
</linearGradient>
<path d="m1482 930.9h-148.8v-11.39h158.5c.97 5.97-3.63 11.39-9.68 11.39z" fill="url(#SVGID_4_)"/>
<path d="m1482 930.9h-148.8v-11.39h158.5c.97 5.97-3.63 11.39-9.68 11.39z" fill="#5f497f"/>
<path d="m1443 665.9h44.23z" fill="#e0f2ff"/>
<path d="m1666 517.4-1.35 14.37-20.1 211.5-2.7 28.53c-.48 5.13-4.98 9.27-10.08 9.27h-426.9c-5.07 0-8.79-4.14-8.31-9.27l22.8-240 1.38-14.37c.48-5.1 4.98-9.27 10.05-9.27h426.9c5.1 0 8.82 4.17 8.31 9.27z" fill="#fff"/>
<circle transform="matrix(.7071 -.7071 .7071 .7071 -131.6 1117)" cx="1282" cy="717.3" r="23.23" fill="#fff"/>
<g fill="#6a6fc9">
<polygon points="1087 1541 1119 1541 1318 982 1254 982"/>
<polygon points="1834 1541 1802 1541 1603 982 1668 982"/>
</g>
<path d="m1832 959.8h-742.6c-17.44 0-31.58-14.14-31.58-31.58h805.8c0 17.44-14.14 31.58-31.58 31.58z" fill="#6a6fc9"/>
<rect x="1099" y="959.8" width="724.2" height="22.1" fill="#a1a4dd"/>
<rect x="1099" y="959.8" width="724.2" height="22.1" fill="#8085d0"/>
<path d="m1940 455.3h-148.9l1.748-16.36c.6298-5.92 6.352-10.72 12.78-10.72h125.5c6.428 0 11.13 4.8 10.49 10.72z" fill="#9ad027" stroke-width="1.042"/>
<path d="m1914 592.4h-125.5c-6.428 0-11.13-4.8-10.5-10.72l13.49-126.3h148.9l-13.49 126.3c-.6298 5.92-6.352 10.72-12.78 10.72z" fill="#e5f4c7" stroke-width="1.042"/>

<path d="m1488 328.3h-195.9l12.48-121.4h195.9zm-190.2-5.19h185.5l11.41-111h-185.5z" fill="#4caf50"/>
<g transform="matrix(1.132 0 0 1 -244.6 0)" clip-rule="evenodd" fill="#9ad027" fill-rule="evenodd">
<path d="m1989 650.9h-41.43c-2.124 0-4.011 1.63-4.213 3.644l-.573 5.563-4.449 42.92c-.2135 2.014 1.337 3.644 3.46 3.644h41.43c2.124 0 4.011-1.63 4.213-3.644l4.449-42.92.573-5.563c.2135-2.014-1.337-3.644-3.46-3.644z"/>
<path d="m1920 725.4h-41.43c-2.124 0-4.011 1.63-4.213 3.644l-.573 5.563-4.449 42.92c-.2135 2.014 1.337 3.644 3.46 3.644h41.43c2.124 0 4.011-1.63 4.213-3.644l4.449-42.92.573-5.563c.2135-2.014-1.337-3.644-3.46-3.644z"/>
<path d="m1927 650.9h-41.43c-2.124 0-4.011 1.63-4.213 3.644l-.573 5.563-4.449 42.92c-.2135 2.014 1.337 3.644 3.46 3.644h41.43c2.124 0 4.011-1.63 4.213-3.644l4.449-42.92.573-5.563c.2135-2.014-1.337-3.644-3.46-3.644z"/>
<path d="m1981 725.4h-41.43c-2.124 0-4.011 1.63-4.213 3.644l-.573 5.563-4.449 42.92c-.2135 2.014 1.337 3.644 3.46 3.644h41.43c2.124 0 4.011-1.63 4.213-3.644l4.449-42.92.573-5.563c.2135-2.014-1.337-3.644-3.46-3.644z"/>
</g>
<path d="m1261 318.2h-153.7l1.8-16.87c.6483-6.106 6.561-11.05 13.2-11.05h129.7c6.639 0 11.49 4.944 10.83 11.05z" fill="#9ad027" stroke-width="1.072"/>
<path d="m1233 459.5h-129.7c-6.639 0-11.49-4.944-10.83-11.05l13.93-130.2h153.7l-13.93 130.2c-.6484 6.106-6.561 11.05-13.2 11.05z" fill="#e5f4c7" stroke-width="1.072"/>
<polygon transform="matrix(1.118 0 0 1.028 -148.7 -12.8)" points="1142 341 1152 370.7 1158 358.1 1171 353.1" fill="#d7deed"/>
<polygon transform="matrix(1.118 0 0 1.028 -148.7 -12.8)" points="1206 341 1216 370.7 1222 358.1 1235 353.1" fill="#4caf50"/>
<g transform="matrix(.6391 0 -.04941 .497 1253 542)"><path d="m494.3 459h-476.7c-9.751 0-17.66-7.904-17.66-17.66v-370.8c0-9.751 7.904-17.66 17.66-17.66h476.7c9.751 0 17.66 7.904 17.66 17.66v370.8c0 9.749-7.905 17.65-17.66 17.65z" fill="#eff2fa"/><path d="m0 105.9h512v-35.31c0-9.751-7.904-17.66-17.66-17.66h-476.7c-9.751 0-17.66 7.904-17.66 17.66z" fill="#9ad027"/><g fill="#ebf5aa">
<path d="m97.1 88.28h-70.62c-4.875 0-8.828-3.953-8.828-8.828s3.953-8.828 8.828-8.828h70.62c4.875 0 8.828 3.953 8.828 8.828-1e-3 4.875-3.954 8.828-8.829 8.828z"/>
<path d="m150.1 88.28h-17.66c-4.875 0-8.828-3.953-8.828-8.828s3.953-8.828 8.828-8.828h17.66c4.875 0 8.828 3.953 8.828 8.828s-3.953 8.828-8.828 8.828z"/>
<path d="m485.5 88.28h-17.66c-4.875 0-8.828-3.953-8.828-8.828s3.953-8.828 8.828-8.828h17.66c4.875 0 8.828 3.953 8.828 8.828s-3.953 8.828-8.828 8.828z"/>
<path d="m432.6 88.28h-17.66c-4.875 0-8.828-3.953-8.828-8.828s3.953-8.828 8.828-8.828h17.66c4.875 0 8.828 3.953 8.828 8.828-1e-3 4.875-3.953 8.828-8.828 8.828z"/>
</g><rect y="105.9" width="512" height="52.97" fill="#d7deed"/><g opacity=".97">
<path d="m52.97 141.2h-26.48c-4.875 0-8.828-3.953-8.828-8.828s3.953-8.828 8.828-8.828h26.48c4.875 0 8.828 3.953 8.828 8.828-1e-3 4.876-3.953 8.828-8.828 8.828z" fill="#afb9d2"/>
</g><path d="m114.8 141.2h-26.48c-4.875 0-8.828-3.953-8.828-8.828s3.953-8.828 8.828-8.828h26.48c4.875 0 8.828 3.953 8.828 8.828-1e-3 4.876-3.953 8.828-8.828 8.828z" fill="#ffd782"/><g fill="#b4e1fa">
<path d="m158.9 141.2h-8.828c-4.875 0-8.828-3.953-8.828-8.828s3.953-8.828 8.828-8.828h8.828c4.875 0 8.828 3.953 8.828 8.828-1e-3 4.876-3.953 8.828-8.828 8.828z"/>
<path d="m203 141.2h-8.828c-4.875 0-8.828-3.953-8.828-8.828s3.953-8.828 8.828-8.828h8.828c4.875 0 8.828 3.953 8.828 8.828 0 4.876-3.952 8.828-8.828 8.828z"/>
</g><path d="m264.8 141.2h-26.48c-4.875 0-8.828-3.953-8.828-8.828s3.953-8.828 8.828-8.828h26.48c4.875 0 8.828 3.953 8.828 8.828-1e-3 4.876-3.953 8.828-8.828 8.828z" fill="#c7cfe2"/><g fill="#eff2fa">
<path d="m317.8 141.2h-17.66c-4.875 0-8.828-3.953-8.828-8.828s3.953-8.828 8.828-8.828h17.66c4.875 0 8.828 3.953 8.828 8.828 0 4.876-3.953 8.828-8.828 8.828z"/>
<path d="m370.8 141.2h-17.66c-4.875 0-8.828-3.953-8.828-8.828s3.953-8.828 8.828-8.828h17.66c4.875 0 8.828 3.953 8.828 8.828-1e-3 4.876-3.953 8.828-8.828 8.828z"/>
</g><g fill="#c7cfe2">
<path d="m432.6 141.2h-26.48c-4.875 0-8.828-3.953-8.828-8.828s3.953-8.828 8.828-8.828h26.48c4.875 0 8.828 3.953 8.828 8.828-1e-3 4.876-3.953 8.828-8.828 8.828z"/>
<path d="m485.5 141.2h-17.66c-4.875 0-8.828-3.953-8.828-8.828s3.953-8.828 8.828-8.828h17.66c4.875 0 8.828 3.953 8.828 8.828 0 4.876-3.953 8.828-8.828 8.828z"/>
<rect y="158.9" width="512" height="17.66"/>
</g><g fill="#8f96ac">
<path d="m273.7 220.7h-35.31c-4.875 0-8.828-3.953-8.828-8.828v-8.828c0-4.875 3.953-8.828 8.828-8.828h35.31c4.875 0 8.828 3.953 8.828 8.828v8.828c0 4.875-3.953 8.828-8.828 8.828z"/>
<path d="m132.4 220.7h-35.31c-4.875 0-8.828-3.953-8.828-8.828v-8.828c0-4.875 3.953-8.828 8.828-8.828h35.31c4.875 0 8.828 3.953 8.828 8.828v8.828c-1e-3 4.875-3.953 8.828-8.828 8.828z"/>
</g><path d="m61.79 220.7h-35.31c-4.875 0-8.828-3.953-8.828-8.828v-8.828c0-4.875 3.953-8.828 8.828-8.828h35.31c4.875 0 8.828 3.953 8.828 8.828v8.828c0 4.875-3.953 8.828-8.828 8.828z" fill="#d7deed"/><g fill="#8f96ac">
<path d="m203 220.7h-35.31c-4.875 0-8.828-3.953-8.828-8.828v-8.828c0-4.875 3.953-8.828 8.828-8.828h35.31c4.875 0 8.828 3.953 8.828 8.828v8.828c0 4.875-3.952 8.828-8.828 8.828z"/>
<path d="m414.9 220.7h-35.31c-4.875 0-8.828-3.953-8.828-8.828v-8.828c0-4.875 3.953-8.828 8.828-8.828h35.31c4.875 0 8.828 3.953 8.828 8.828v8.828c-1e-3 4.875-3.953 8.828-8.828 8.828z"/>
<path d="m344.3 220.7h-35.31c-4.875 0-8.828-3.953-8.828-8.828v-8.828c0-4.875 3.953-8.828 8.828-8.828h35.31c4.875 0 8.828 3.953 8.828 8.828v8.828c-1e-3 4.875-3.953 8.828-8.828 8.828z"/>
<path d="m485.5 220.7h-35.31c-4.875 0-8.828-3.953-8.828-8.828v-8.828c0-4.875 3.953-8.828 8.828-8.828h35.31c4.875 0 8.828 3.953 8.828 8.828v8.828c0 4.875-3.953 8.828-8.828 8.828z"/>
</g><g fill="#d7deed">
<path d="m273.7 264.8h-35.31c-4.875 0-8.828-3.953-8.828-8.828v-8.828c0-4.875 3.953-8.828 8.828-8.828h35.31c4.875 0 8.828 3.953 8.828 8.828v8.828c0 4.875-3.953 8.828-8.828 8.828z"/>
<path d="m132.4 264.8h-35.31c-4.875 0-8.828-3.953-8.828-8.828v-8.828c0-4.875 3.953-8.828 8.828-8.828h35.31c4.875 0 8.828 3.953 8.828 8.828v8.828c-1e-3 4.875-3.953 8.828-8.828 8.828z"/>
</g><path d="m61.79 264.8h-35.31c-4.875 0-8.828-3.953-8.828-8.828v-8.828c0-4.875 3.953-8.828 8.828-8.828h35.31c4.875 0 8.828 3.953 8.828 8.828v8.828c0 4.875-3.953 8.828-8.828 8.828z" fill="#9ad027"/><g fill="#d7deed">
<path d="m203 264.8h-35.31c-4.875 0-8.828-3.953-8.828-8.828v-8.828c0-4.875 3.953-8.828 8.828-8.828h35.31c4.875 0 8.828 3.953 8.828 8.828v8.828c0 4.875-3.952 8.828-8.828 8.828z"/>
<path d="m414.9 264.8h-35.31c-4.875 0-8.828-3.953-8.828-8.828v-8.828c0-4.875 3.953-8.828 8.828-8.828h35.31c4.875 0 8.828 3.953 8.828 8.828v8.828c-1e-3 4.875-3.953 8.828-8.828 8.828z"/>
<path d="m344.3 264.8h-35.31c-4.875 0-8.828-3.953-8.828-8.828v-8.828c0-4.875 3.953-8.828 8.828-8.828h35.31c4.875 0 8.828 3.953 8.828 8.828v8.828c-1e-3 4.875-3.953 8.828-8.828 8.828z"/>
<path d="m485.5 264.8h-35.31c-4.875 0-8.828-3.953-8.828-8.828v-8.828c0-4.875 3.953-8.828 8.828-8.828h35.31c4.875 0 8.828 3.953 8.828 8.828v8.828c0 4.875-3.953 8.828-8.828 8.828z"/>
<path d="m273.7 309h-35.31c-4.875 0-8.828-3.953-8.828-8.828v-8.828c0-4.875 3.953-8.828 8.828-8.828h35.31c4.875 0 8.828 3.953 8.828 8.828v8.828c0 4.875-3.953 8.828-8.828 8.828z"/>
<path d="m132.4 309h-35.31c-4.875 0-8.828-3.953-8.828-8.828v-8.828c0-4.875 3.953-8.828 8.828-8.828h35.31c4.875 0 8.828 3.953 8.828 8.828v8.828c-1e-3 4.875-3.953 8.828-8.828 8.828z"/>
</g><path d="m61.79 309h-35.31c-4.875 0-8.828-3.953-8.828-8.828v-8.828c0-4.875 3.953-8.828 8.828-8.828h35.31c4.875 0 8.828 3.953 8.828 8.828v8.828c0 4.875-3.953 8.828-8.828 8.828z" fill="#9ad027"/><g fill="#d7deed">
<path d="m203 309h-35.31c-4.875 0-8.828-3.953-8.828-8.828v-8.828c0-4.875 3.953-8.828 8.828-8.828h35.31c4.875 0 8.828 3.953 8.828 8.828v8.828c0 4.875-3.952 8.828-8.828 8.828z"/>
<path d="m414.9 309h-35.31c-4.875 0-8.828-3.953-8.828-8.828v-8.828c0-4.875 3.953-8.828 8.828-8.828h35.31c4.875 0 8.828 3.953 8.828 8.828v8.828c-1e-3 4.875-3.953 8.828-8.828 8.828z"/>
<path d="m344.3 309h-35.31c-4.875 0-8.828-3.953-8.828-8.828v-8.828c0-4.875 3.953-8.828 8.828-8.828h35.31c4.875 0 8.828 3.953 8.828 8.828v8.828c-1e-3 4.875-3.953 8.828-8.828 8.828z"/>
<path d="m485.5 309h-35.31c-4.875 0-8.828-3.953-8.828-8.828v-8.828c0-4.875 3.953-8.828 8.828-8.828h35.31c4.875 0 8.828 3.953 8.828 8.828v8.828c0 4.875-3.953 8.828-8.828 8.828z"/>
<path d="m273.7 353.1h-35.31c-4.875 0-8.828-3.953-8.828-8.828v-8.828c0-4.875 3.953-8.828 8.828-8.828h35.31c4.875 0 8.828 3.953 8.828 8.828v8.828c0 4.876-3.953 8.828-8.828 8.828z"/>
<path d="m132.4 353.1h-35.31c-4.875 0-8.828-3.953-8.828-8.828v-8.828c0-4.875 3.953-8.828 8.828-8.828h35.31c4.875 0 8.828 3.953 8.828 8.828v8.828c-1e-3 4.876-3.953 8.828-8.828 8.828z"/>
</g><path d="m61.79 353.1h-35.31c-4.875 0-8.828-3.953-8.828-8.828v-8.828c0-4.875 3.953-8.828 8.828-8.828h35.31c4.875 0 8.828 3.953 8.828 8.828v8.828c0 4.876-3.953 8.828-8.828 8.828z" fill="#9ad027"/><g fill="#d7deed">
<path d="m203 353.1h-35.31c-4.875 0-8.828-3.953-8.828-8.828v-8.828c0-4.875 3.953-8.828 8.828-8.828h35.31c4.875 0 8.828 3.953 8.828 8.828v8.828c0 4.876-3.952 8.828-8.828 8.828z"/>
<path d="m414.9 353.1h-35.31c-4.875 0-8.828-3.953-8.828-8.828v-8.828c0-4.875 3.953-8.828 8.828-8.828h35.31c4.875 0 8.828 3.953 8.828 8.828v8.828c-1e-3 4.876-3.953 8.828-8.828 8.828z"/>
<path d="m344.3 353.1h-35.31c-4.875 0-8.828-3.953-8.828-8.828v-8.828c0-4.875 3.953-8.828 8.828-8.828h35.31c4.875 0 8.828 3.953 8.828 8.828v8.828c-1e-3 4.876-3.953 8.828-8.828 8.828z"/>
<path d="m485.5 353.1h-35.31c-4.875 0-8.828-3.953-8.828-8.828v-8.828c0-4.875 3.953-8.828 8.828-8.828h35.31c4.875 0 8.828 3.953 8.828 8.828v8.828c0 4.876-3.953 8.828-8.828 8.828z"/>
<path d="m273.7 397.2h-35.31c-4.875 0-8.828-3.953-8.828-8.828v-8.828c0-4.875 3.953-8.828 8.828-8.828h35.31c4.875 0 8.828 3.953 8.828 8.828v8.828c0 4.876-3.953 8.828-8.828 8.828z"/>
<path d="m132.4 397.2h-35.31c-4.875 0-8.828-3.953-8.828-8.828v-8.828c0-4.875 3.953-8.828 8.828-8.828h35.31c4.875 0 8.828 3.953 8.828 8.828v8.828c-1e-3 4.876-3.953 8.828-8.828 8.828z"/>
</g><path d="m61.79 397.2h-35.31c-4.875 0-8.828-3.953-8.828-8.828v-8.828c0-4.875 3.953-8.828 8.828-8.828h35.31c4.875 0 8.828 3.953 8.828 8.828v8.828c0 4.876-3.953 8.828-8.828 8.828z" fill="#9ad027"/><g fill="#d7deed">
<path d="m203 397.2h-35.31c-4.875 0-8.828-3.953-8.828-8.828v-8.828c0-4.875 3.953-8.828 8.828-8.828h35.31c4.875 0 8.828 3.953 8.828 8.828v8.828c0 4.876-3.952 8.828-8.828 8.828z"/>
<path d="m414.9 397.2h-35.31c-4.875 0-8.828-3.953-8.828-8.828v-8.828c0-4.875 3.953-8.828 8.828-8.828h35.31c4.875 0 8.828 3.953 8.828 8.828v8.828c-1e-3 4.876-3.953 8.828-8.828 8.828z"/>
<path d="m344.3 397.2h-35.31c-4.875 0-8.828-3.953-8.828-8.828v-8.828c0-4.875 3.953-8.828 8.828-8.828h35.31c4.875 0 8.828 3.953 8.828 8.828v8.828c-1e-3 4.876-3.953 8.828-8.828 8.828z"/>
<path d="m485.5 397.2h-35.31c-4.875 0-8.828-3.953-8.828-8.828v-8.828c0-4.875 3.953-8.828 8.828-8.828h35.31c4.875 0 8.828 3.953 8.828 8.828v8.828c0 4.876-3.953 8.828-8.828 8.828z"/>
<path d="m273.7 441.4h-35.31c-4.875 0-8.828-3.953-8.828-8.828v-8.828c0-4.875 3.953-8.828 8.828-8.828h35.31c4.875 0 8.828 3.953 8.828 8.828v8.828c0 4.876-3.953 8.828-8.828 8.828z"/>
<path d="m132.4 441.4h-35.31c-4.875 0-8.828-3.953-8.828-8.828v-8.828c0-4.875 3.953-8.828 8.828-8.828h35.31c4.875 0 8.828 3.953 8.828 8.828v8.828c-1e-3 4.876-3.953 8.828-8.828 8.828z"/>
</g><path d="m61.79 441.4h-35.31c-4.875 0-8.828-3.953-8.828-8.828v-8.828c0-4.875 3.953-8.828 8.828-8.828h35.31c4.875 0 8.828 3.953 8.828 8.828v8.828c0 4.876-3.953 8.828-8.828 8.828z" fill="#9ad027"/><g fill="#d7deed">
<path d="m203 441.4h-35.31c-4.875 0-8.828-3.953-8.828-8.828v-8.828c0-4.875 3.953-8.828 8.828-8.828h35.31c4.875 0 8.828 3.953 8.828 8.828v8.828c0 4.876-3.952 8.828-8.828 8.828z"/>
<path d="m414.9 441.4h-35.31c-4.875 0-8.828-3.953-8.828-8.828v-8.828c0-4.875 3.953-8.828 8.828-8.828h35.31c4.875 0 8.828 3.953 8.828 8.828v8.828c-1e-3 4.876-3.953 8.828-8.828 8.828z"/>
<path d="m344.3 441.4h-35.31c-4.875 0-8.828-3.953-8.828-8.828v-8.828c0-4.875 3.953-8.828 8.828-8.828h35.31c4.875 0 8.828 3.953 8.828 8.828v8.828c-1e-3 4.876-3.953 8.828-8.828 8.828z"/>
<path d="m485.5 441.4h-35.31c-4.875 0-8.828-3.953-8.828-8.828v-8.828c0-4.875 3.953-8.828 8.828-8.828h35.31c4.875 0 8.828 3.953 8.828 8.828v8.828c0 4.876-3.953 8.828-8.828 8.828z"/>
</g></g>
<path d="m1439 908.7s-6.06 6.88-16.29 3.22c-10.2-3.66-19.52-15.44-19.52-15.44l-37.55-1.01-18.22-25.42c.09-.06.16-.06.25-.09 11.65-2.97 63.5 9.88 63.5 9.88z" fill="#f3866f"/>
<path d="m896.9 526.8-9.95 57.24-2.22 12.71c-30.41 6.08-69.95-24.33-69.95-24.33l22.05-71.02 5.32-17.18z" fill="#ff9d7b"/>
<path d="m896.9 526.8-9.12 51.7c-15.33-11.04-38.44-28.75-47.03-57.68-1.49-5.01-3.18-11.97-3.91-19.42l5.32-17.18z" fill="#ec7a6a"/>
<path d="m966.6 478c-1.4 19.4-7.06 38.29-16.42 55.35l-7.18 13.11c-3.13 5.72-9.03 9.37-15.57 9.64l-21.66.85c-3.22.12-6.42-.58-9.28-2.07-.64-.3-1.22-.64-1.79-1.03-13.29-8.91-47.66-34.82-52.56-66.61-4.17-27.07-7.6-95.81-7.6-95.81s1-.3 2.83-.82c6.57-1.89 23.81-6.57 43.61-9.88 33.46-5.6 74.15-7.24 82.82 15.27 6.18 16.06 4.81 54.5 2.8 82z" fill="#ff9d7b"/>
<path d="m896.5 554.9c-.64-.3-1.22-.64-1.79-1.03-13.29-8.91-47.66-34.82-52.56-66.61-4.17-27.07-7.6-95.81-7.6-95.81s1-.3 2.83-.82c6.57-1.89 23.81-6.57 43.61-9.88-2.04 18.74-7.91 76.74-5.38 109.6 2.06 26.92 19.4 56.12 20.89 64.6z" fill="#f3866f"/>
<g transform="translate(.72 2.59)">
<linearGradient id="SVGID_5_" x1="1329" x2="1415" y1="907" y2="907" gradientUnits="userSpaceOnUse">
<stop stop-color="#B59FA8" offset="0"/>
<stop stop-color="#CDB9B9" offset="1"/>
</linearGradient>
<path d="m1415 920.2c0 .98-.09 1.93-.28 2.78-.44 2.05-1.42 3.82-2.84 5.27h-80.05c-1.42-1.45-2.4-3.22-2.84-5.27-.19-.85-.28-1.8-.28-2.78 0-13.89 19.33-34.58 43.14-34.58 23.83 0 43.15 20.69 43.15 34.58z" fill="url(#SVGID_5_)"/>
<path d="m1415 920.2c0 .98-.09 1.93-.28 2.78-.44 2.05-1.42 3.82-2.84 5.27h-80.05c-1.42-1.45-2.4-3.22-2.84-5.27-.19-.85-.28-1.8-.28-2.78 0-13.89 19.33-34.58 43.14-34.58 23.83 0 43.15 20.69 43.15 34.58z" fill="#644d84"/>
<linearGradient id="SVGID_6_" x1="1329" x2="1417" y1="907" y2="907" gradientUnits="userSpaceOnUse">
<stop stop-color="#D3A7C6" offset="0"/>
<stop stop-color="#C481BE" offset="1"/>
</linearGradient>
<path d="m1346 919.5c0-12.25 15.04-29.09 34.97-33.01-2.65-.54-5.37-.82-8.18-.82-23.81 0-43.14 20.68-43.14 34.58 0 .99.13 1.9.32 2.78h-.04c.12.57.3 1.12.5 1.65.03.08.07.15.11.23.22.53.48 1.03.78 1.51.08.12.15.25.24.37.36.53.76 1.05 1.22 1.51h80.05c1.42-1.45 4.3-6.75 4.74-8.8z" fill="url(#SVGID_6_)" opacity=".5"/>
</g><g fill="#84335c">
<path d="m830 362.5c-.84 0-1.67-.35-2.26-1.03-8.67-9.92.81-33.57 1.92-36.23.64-1.53 2.39-2.25 3.92-1.62 1.53.64 2.25 2.39 1.62 3.92-3.63 8.74-7.64 24.6-2.94 29.98 1.09 1.25.96 3.14-.28 4.23-.57.51-1.28.75-1.98.75z"/>
<path d="m830 362.5c-.77 0-1.54-.29-2.12-.88-12.84-12.84-21.47-5.42-21.83-5.1-1.23 1.1-3.12 1.01-4.23-.21s-1.04-3.09.16-4.21c.13-.12 13.08-11.78 30.14 5.27 1.17 1.17 1.17 3.07 0 4.24-.58.6-1.35.89-2.12.89z"/>
<path d="m1009 353.4c-27.37 69.95-97.33 57.79-118.6 48.66-21.29-9.12-39.54-3.04-39.54-3.04.58 3.95.49 8.24 0 12.65-2.16 19.31-12.44 40.36-12.44 40.36s-7.94 5.44-14.26-1.64c-7.3-8.18-22.81-74.49-16.82-85.92 1.89-3.62 4.38-5.66 7.03-6.66 7.09-2.83 15.21 1.67 15.21 1.67s-2.28-27.62 36.5-39.54c39.54-12.17 60.83 6.08 82.12 24.33 18.6 15.97 60.82 9.13 60.82 9.13z"/>
</g><path d="m851.3 399v12.65c-2.16 19.31-12.44 40.36-12.44 40.36s-7.94 5.44-14.26-1.64c-7.3-8.18-22.81-74.49-16.82-85.92 1.89-3.62 4.38-5.66 7.03-6.66-.12 1.58 1.45 52.54 17.54 55.68 16.33 3.19 18.95-14.47 18.95-14.47z" fill="#5a173c" opacity=".8"/>
<path d="m947.2 416.1c-14.92 0-30.86-4.16-47.2-12.59-28.71-14.79-48.87-2.69-49.72-2.17-1.41.87-3.25.44-4.13-.96-.87-1.4-.45-3.25.95-4.12.96-.6 23.77-14.5 55.65 1.93 38.74 19.96 73.53 15.06 97.97-13.81 1.07-1.27 2.96-1.42 4.23-.35s1.42 2.96.35 4.23c-15.63 18.45-35.71 27.84-58.1 27.84z" fill="#84335c"/>
<path d="m986 373.4.02-.02s-37.1 17.66-68.8-11.16c0 0 15.76 28.62 37.66 27.12-3.35.96-6.74 1.67-10.11 2.01-32 3.22-41-24.97-66.49-21.11-25.52 3.83-27.04 28.77-27.04 28.77s18.25-6.08 39.54 3.04 91.24 21.29 118.6-48.66c-.01 0-8.95 12.68-23.4 20.01z" fill="#5a173c" opacity=".8"/>
<path d="m1208 1171c-9.19 16.52-69.06 109.2-117.6 183.9v.03c-29.84 45.95-55.39 85.07-62.24 95.56-1.14 1.8-1.77 2.75-1.77 2.75l-13.52-17.24-19.61-25.04 43.64-108.4 110.5-274.3s60.63.6 76.42 38.49c15.8 37.89.01 75.79-15.78 104.2z" fill="#584377"/>
<path d="m1088 1359-4.35 6.72c-9.39 14.4-17.64 27.12-24.78 38.13-15.66 24-25.95 39.78-30.66 46.95l-15.27-14.49-19.62-25.05 17.58-43.68 18.96-47.1c20.31-.12 38.49 13.92 50.04 25.56 3.09 3.84 5.82 8.16 8.1 12.96z" fill="#ff9d7b"/>
<path d="m1089 1358-4.93 7.61c-9.39 14.4-17.64 27.12-24.78 38.13-13.26-23.43-37.23-33-47.97-36.27l19.3-47.69c20.31-.12 38.41 14.07 49.96 25.71 3.09 3.85 6.14 7.71 8.42 12.51z" fill="#533c6c"/>
<path d="m1286 890.2s60.38-24.89 72.37-24.37c12 .51 58 27.66 58 27.66l18.4 35.63s-7.79 4.86-16.53-1.58-14.29-20.38-14.29-20.38l-35.68-11.73-20.3 16.38c-11.68 9.42-38.18 23.84-57.04 14.13l-28.43.33-1.35-33.56z" fill="#ff9d7b"/>
<path d="m1039 655.7s2.94-30.38 7.43-45.84-3.71-45.37-3.71-45.37 12.85-2.99 15.51 11.3 3.95 24.05 7.96 25.82 42.57-4.55 42.57-4.55l11.3 46.2s-10.8 32.16-41.76 36.9c-9.48 1.45-19.07 13.96-19.07 13.96l-29.25-25.93z" fill="#ff9d7b"/>
<linearGradient id="SVGID_7_" x1="898.3" x2="1061" y1="790.5" y2="790.5" gradientUnits="userSpaceOnUse">
<stop stop-color="#FCAE5C" offset="0"/>
<stop stop-color="#FFE75B" offset="1"/>
</linearGradient>
<path d="m1032 664.8 29.08 26.64-92.55 199s-30.58 39.32-58.35 21.13 0-70.02 0-70.02z" fill="url(#SVGID_7_)"/>
<g opacity=".5">
<path d="m1032 664.8 29.08 26.64-92.55 199s-30.58 39.32-58.35 21.13 0-70.02 0-70.02z" fill="#fd932b"/>
</g>
<polygon points="1126 682.3 1068 682.3 1059 565.6 1135 565.6" fill="#84335c"/>
<path d="m1075 565.6 5.37 80.19c.81 12.13 10.68 21.48 22.5 21.48h24.15l-1.16 15h-57.74l-9.01-116.7z" fill="#5a173c" opacity=".5"/>
<g fill="#ff9d7b">
<path d="m1146 611c-.47-5.24-6.43-8.57-12.09-7.18l-24.51 6.03s-15.72 3.21-14.56 8.23 6.58 4.65 15.43 4.46c8.86-.19 28.6-1.97 28.6-1.97s7.59-2.98 7.15-9.37c-.01-.07-.01-.13-.02-.2z"/>
<path d="m1148 643.5c.89-4.99-4-9.65-9.82-9.84l-25.2-.81s-15.99-1.13-16.16 3.84 5.15 6.04 13.75 8.18 28.1 5.64 28.1 5.64 8.09-.79 9.3-6.84c.01-.05.02-.11.03-.17z"/>
<path d="m1143 657.7c1.34-4.21-2.42-8.81-7.5-9.66l-21.97-3.67s-13.87-2.86-14.57 1.41 3.84 5.82 11.12 8.69 23.97 8.19 23.97 8.19 7.17.27 8.91-4.81c.01-.05.02-.1.04-.15z"/>
<path d="m1149 628.2c.32-5.55-5.67-9.99-12.1-9.45l-27.82 2.37s-17.73.84-17.26 6.27 6.46 5.91 16.2 7.13 31.64 2.52 31.64 2.52 8.79-1.9 9.33-8.65c0-.06 0-.12.01-.19z"/>
</g>
<path d="m926.9 946.7c-.45 29.95-7.44 43.41-7.44 43.41-11.72 11.72-25.49 19.94-39.95 25.61-11.99 4.73-24.46 7.71-36.66 9.43-44.53 6.39-85.32-3.46-85.32-3.46s-7.77-4.37-11.03-19.25c-1.51-6.9-2.2-24.07 4.13-52.48 6.33-28.44-7.47-201.1 1.99-261 9.46-60.01 48.29-108 48.29-108l113.7 47.39s31.6 12.95 50.55 53.99c18.96 41.04-36.92 178.3-38.25 264.4z" fill="#ffca4d"/>
<g opacity=".5">
<linearGradient id="SVGID_8_" x1="1236" x2="717.7" y1="1019" y2="760.7" gradientUnits="userSpaceOnUse">
<stop stop-color="#FD932B" offset="0"/>
<stop stop-color="#FD952C" offset=".4816"/>
<stop stop-color="#FD9D2E" offset=".7075"/>
<stop stop-color="#FEA933" offset=".8794"/>
<stop stop-color="#FEB838" offset="1"/>
</linearGradient>
<path d="m868.1 952.5c-12.92 12.68 13.59 11.42 20.61 18.41 7.05 6.96-49.02 16.81-43.53 33.35 5.21 15.73 31.66 11.84 34.19 11.45l-36.48 9.4c-44.53 6.39-85.32-3.46-85.32-3.46s-7.77-4.37-11.03-19.25c-1.51-6.9-2.2-24.07 4.13-52.48 6.33-28.44-7.47-201.1 1.99-261 9.46-60.01 48.29-108 48.29-108l50.85 21.21 34.44 1.43s25.76 18.12 49.47 46.95-18.02 146.6-32.15 199c-14.16 52.31-22.53 90.36-35.46 103z" fill="url(#SVGID_8_)"/>
</g>
<path d="m1282 926-1.81.03-211.2 2.17c-15.48 0-30.46-5.52-42.17-15.64l-129-129.1s-.8-1.02-2.14-2.91c-8.47-11.98-39.03-42.96-31.86-94.78h.03c.27-2.06.63-4.26 1.1-6.54.16-.93.36-1.84.58-2.78.03-.22.08-.44.14-.66 3.33-14.21 9.76-28.59 20.48-42.5 1.7-2.23 3.52-4.45 5.44-6.65 1.98-2.25 4.04-4.45 6.24-6.65 0 0 38.59 14.54 51.24 27.19 11.16 11.19 103.1 165.7 126 201.2 3 4.59 7.81 7.59 13.22 8.22l191.3 34.14 1.76 25.51z" fill="#ffca4d"/>
<g opacity=".5">
<linearGradient id="SVGID_9_" x1="1280" x2="761.8" y1="930.4" y2="672.3" gradientUnits="userSpaceOnUse">
<stop stop-color="#FD932B" offset="0"/>
<stop stop-color="#FD952C" offset=".4816"/>
<stop stop-color="#FD9D2E" offset=".7075"/>
<stop stop-color="#FEA933" offset=".8794"/>
<stop stop-color="#FEB838" offset="1"/>
</linearGradient>
<path d="m1282 926-132.7 2.2h-80.29c-15.48 0-30.46-5.52-42.17-15.64l-129-129.1s-.8-1.02-2.14-2.91c-8.47-11.98-39.03-42.96-31.86-94.78h.03c.27-2.06.63-4.26 1.1-6.54.16-.93.36-1.84.58-2.78.03-.22.08-.44.14-.66 3.33-14.21 9.76-28.59 20.48-42.5 1.7-2.23 3.52-4.45 5.44-6.65 39.88 15.15 146.6 272.1 174.8 280.3 25.95 7.5 189.6 9.13 215 9.32z" fill="url(#SVGID_9_)"/>
</g>
<path d="m914.6 628.3s-91.49 0-117.6-49.02l13.07-22.9.03.03c1.3.87 43.32 29.46 98 32.66l1.42 8.47z" fill="#ffca4d"/>
<path d="m909.5 597.5c-65.67-2.92-98.33-39.89-99.42-41.12 1.3.87 43.32 29.46 98 32.66z" fill="#fff"/>
<path d="m1327 1359c-3.6-12.88-7.1-25.17-10.2-35.68l-.03-.03c-25.17-85.45-56.65-191.2-63.22-209-11.31-30.5-29.81-67.14-68.87-79.8-4.06-1.32-8.12-1.97-12.15-2.14-66.04-14.04-258.3-41.12-258.3-41.12l-158.4 29.25s-12.67 44.72 9.66 81.35c14.7 24.12 42.2 44.13 79.68 44.13 32.92 0 241.5-12.18 291.8-15.14l167.1 338.9 53.65 2.37c.01-.01-16.22-61.59-30.65-113.1z" fill="#644d84"/>
<path d="m1359 1469s-29.79 13.11-54.69.54l-17.88-36.24-20.49-41.58c14.16-2.04 43.47-8.4 62.91-27.42 4.53 16.02 9.33 32.82 13.74 48.12 9.03 31.38 16.41 56.58 16.41 56.58z" fill="#ff9d7b"/>
<g opacity=".5">
<path d="m1302 1387c-.93-2.63-92.93-263.5-123.6-295.1-24.6-25.33-140-22.65-209-21.05-17.23.4-32.11.75-43.42.67-61.04-.43-77.63-49.61-77.79-50.11l5.73-1.86c.61 1.86 15.52 45.54 72.1 45.94 11.23.09 26.06-.27 43.24-.67 74.47-1.73 187-4.34 213.4 22.87 31.56 32.5 121.1 286.5 124.9 297.3z" fill="#533c6c"/>
</g>
<path d="m1328 1363c-19.44 19.02-48.47 26.32-62.63 28.36l20.52 41.74c33.9.51 50.31-13.98 56.16-20.88z" fill="#533c6c"/>
<path d="m1098 1525v16.29h-91.58l-50.52-138.9 10.83-.16 1.52-.03 2.53-.03 27.09-.44c26.05 8.01 42.31 52.45 50.2 80.85 3.94 14.18 16.78 24.02 31.49 24.02 10.18 0 18.44 8.26 18.44 18.44z" fill="#644d84"/>
<path d="m1054 1528c-12.79 0-24.27-7.83-28.93-19.74l-32.94-84.07s-7.99-21.32-21.54-22.33l-2.53.03c-.38.03-.79.09-1.2.19 0 0-.13-.06-.32-.16l-10.83.16 45.78 125.9 4.74 13.04h91.57v-13.04h-43.8z" fill="#533c6c"/>
<linearGradient id="SVGID_10_" x1="950" x2="1048" y1="1478" y2="1478" gradientUnits="userSpaceOnUse">
<stop stop-color="#D3A7C6" offset="0"/>
<stop stop-color="#C481BE" offset="1"/>
</linearGradient>
<path d="m1048 1541-43.14.06c-3.6 0-7.07-.82-10.2-2.31l-44.97-123.7 10.83-.16c.19.09.32.16.32.16.41-.09.82-.16 1.2-.19l2.53-.03c9.32.69 16.01 10.99 19.26 17.34l.03.03c1.48 2.87 2.24 4.96 2.24 4.96l28.8 73.39 4.17 10.67c4.65 11.9 16.14 19.74 28.93 19.74z" fill="url(#SVGID_10_)"/>
<path d="m1048 1541-43.14.06c-3.6 0-7.07-.82-10.2-2.31-5.72-2.65-10.26-7.52-12.44-13.7-9.57-27.25-28.42-81.38-33.09-97.67-6.32-22.1 6.32-25.26 6.32-25.26 15.79-3.16 25.7 22.49 25.7 22.49l37.93 96.66c4.64 11.89 16.13 19.73 28.92 19.73z" fill="#644d84"/>
<path d="m1048 1541-43.14.06c-3.6 0-7.07-.82-10.2-2.31-5.72-2.65-10.26-7.52-12.44-13.7-9.57-27.25-28.42-81.38-33.09-97.67-6.32-22.1 6.32-25.26 6.32-25.26 15.79-3.16 25.7 22.49 25.7 22.49l37.93 96.66c4.64 11.89 16.13 19.73 28.92 19.73z" fill="#3e2950"/>
<path d="m1056 1408s13.51 10.07 6.57 22.36-20.8 33.68-20.8 33.68l-8.42-21.28z" fill="#533c6c"/>
<path d="m875 426.5-5.14 6.77-2.93 3.81-5.13 5.17-71.16 29.1c-4.87 1.99-10.46-.35-12.46-5.25-1-2.45-.89-5.04.05-7.3.95-2.26 2.72-4.15 5.17-5.15l71.16-29.1 7.34.07 4.7.69z" fill="#644d84"/>
<path d="m883.1 423.2-5.14 6.77-2.93 3.81-5.13 5.17-71.16 29.1c-4.87 1.99-10.46-.35-12.46-5.25-1-2.45-.89-5.04.05-7.3.95-2.26 2.72-4.15 5.17-5.15l71.16-29.1 7.34.07 4.7.69z" fill="#524dbf"/>
<path d="m882.6 421.4c1.75.02 2.62 2.13 1.38 3.37l-5.38 5.42-3.54 3.53-5.13 5.17-12.08-5.37 4.85-12.33 7.34.07 4.94.07z" fill="#fff"/>
<path d="m883.9 424.8-5.33 5.38c-3.37-1.51-4.97-5.4-3.63-8.84l.01-.02 7.56.08c1.76.01 2.63 2.14 1.39 3.4z" fill="#644d84"/>
<g fill="#f3866f">
<path d="m838.8 452.1s-10.12-14-21.1-8.5c-10.99 5.49-5.49 27.46 0 35.7s15.65 16.25 24.31 5.38c8.64-10.87-3.21-32.58-3.21-32.58z"/>
<path d="m823.5 469.3c-2.5-4.47-.93-7.53 2.16-9.26s6.52-1.47 9.02 3 3.12 11.45.04 13.17c-3.1 1.74-8.72-2.44-11.22-6.91z" opacity=".3"/>
</g>
<path d="m834.3 1044c-3.04-66.14-9.6-123.7-17.45-163.8-12.51-63.96-23.78-100.8-23.91-101.1-1.65-5.62-25.46-28.38-78.39-27.68-52.94.7-47.92 30.55-47.92 30.55-.01 1.01.15 1.95.38 2.65.51 1.54 49.1 157.3 47 358.4-.03 2.82-.39 7.7-.16 10.95 0 .01 122.7 2.8 122.7 0 4.28-17.57 2.2-66.27-2.25-109.9z" fill="#9ca0db"/><g fill="#6a6fc9">
<path d="m817.8 1044c-3.04-66.14-9.6-123.7-17.45-163.8-12.51-63.96-23.78-100.8-23.91-101.1-1.65-5.62-25.46-28.38-78.39-27.68-52.94.7-47.91 30.55-47.91 30.55-.01 1.01.15 1.95.38 2.65.51 1.54 49.1 157.3 47 358.4-.03 2.82-.39 7.7-.16 10.95 0 .01 122.7 2.8 122.7 0 4.27-17.57 2.19-66.27-2.26-109.9z"/>
<path d="m872.1 1508 .07-53.27c0-3.56-2.88-6.45-6.44-6.45h-3.14c-3.56 0-6.45 2.88-6.45 6.44l-.07 53.27c0 3.56 2.88 6.45 6.44 6.45h3.14c3.55 0 6.44-2.88 6.45-6.44z"/>
<path d="m745.6 1521 44.02-54.84c2.52-3.15 2.02-7.74-1.12-10.27l-1.11-.89c-3.15-2.52-7.74-2.02-10.27 1.12l-44.02 54.84c-2.52 3.15-2.02 7.74 1.12 10.27l1.11.89c3.14 2.53 7.74 2.03 10.27-1.12z"/>
<path d="m982.7 1521-44.02-54.84c-2.52-3.15-2.02-7.74 1.12-10.27l1.11-.89c3.15-2.52 7.74-2.02 10.27 1.12l44.02 54.84c2.52 3.15 2.02 7.74-1.12 10.27l-1.11.89c-3.15 2.53-7.75 2.03-10.27-1.12z"/>
<path d="m850.7 1182v261.7c0 5.48 4.44 9.92 9.92 9.92h7.07c5.48 0 9.92-4.44 9.92-9.92v-261.7c0-5.48-4.44-9.92-9.92-9.92h-7.07c-5.48 0-9.92 4.44-9.92 9.92z"/>
<path d="m965.2 1177c0 7.09-5.21 12.82-11.64 12.82h-182c-3.22 0-6.14-1.44-8.23-3.75-.66-.72-1.25-1.54-1.71-2.42v-.02c-.51-.86-.89-1.82-1.16-2.8v-.05c-.34-1.19-.53-2.47-.53-3.78 0-6.11 3.85-11.19 9.04-12.49.83-.21 1.71-.33 2.6-.33h182c3.22 0 6.14 1.45 8.23 3.75 2.09 2.31 3.4 5.53 3.4 9.07z"/>
</g><path d="m1028 1155c0 1.86-.31 3.66-.92 5.34-2.42 6.98-9.47 12.03-17.82 12.03h-293.1c-5.18 0-9.88-1.96-13.26-5.08-1.06-.98-2.01-2.08-2.76-3.28v-.03c-.78-1.11-1.36-2.34-1.81-3.6-.03-.06-.03-.13-.07-.19v-.06c-.55-1.61-.85-3.35-.85-5.12 0-8.27 6.2-15.16 14.55-16.93 1.33-.28 2.76-.44 4.19-.44h293.1c5.18 0 9.88 1.96 13.26 5.08 3.37 3.12 5.48 7.48 5.48 12.28z" fill="#9ca0db"/>
<path d="m764.2 1463h199.8c5.23 0 9.47-4.24 9.47-9.47s-4.24-9.47-9.47-9.47h-199.8c-5.23 0-9.47 4.24-9.47 9.47 0 5.22 4.24 9.47 9.47 9.47z" fill="#9ca0db"/>
<path d="m1462 1469h-66.57c-7.87 0-14.81-4.81-17.02-11.84-2.41-7.66-5.23-15.97-7.87-22.04-6.37-14.65-25.39-11.04-25.39-11.04l13.33 44.73.54.18s-28.15 8.21-53.88 0c-4.26-1.36-8.1 21.97-8.1 33.92v37.6h211.2v-28.5c0-23.75-20.69-43.01-46.22-43.01z" fill="#644d84"/>
<rect x="1297" y="1522" width="211.2" height="19.15" fill="#533c6c"/>
<path d="m1395 1469c-7.64-.01-14.33-4.72-16.47-11.54-2.42-7.71-5.27-16.1-7.93-22.22-6.37-14.65-25.39-11.04-25.39-11.04l14.44 50.3c1.98 6.91 8.7 11.71 16.39 11.71h67.64c10.15 0 18.37-7.66 18.37-17.1z" fill="#533c6c"/>
<circle transform="matrix(.1614 -.9869 .9869 .1614 -772 2125)" cx="864.1" cy="1517" r="24.56" fill="#644d84"/>
<circle transform="matrix(.9256 -.3786 .3786 .9256 -509.9 440.1)" cx="864.1" cy="1517" r="17.54" fill="#baa4ab"/>
<circle transform="matrix(.7071 -.7071 .7071 .7071 -855.3 968.1)" cx="740.9" cy="1517" r="24.56" fill="#644d84"/>
<circle transform="matrix(.7071 -.7071 .7071 .7071 -855.3 968.1)" cx="740.9" cy="1517" r="17.54" fill="#baa4ab"/>
<circle transform="matrix(.9888 -.1495 .1495 .9888 -215.7 164.7)" cx="987.3" cy="1517" r="24.56" fill="#644d84"/>
<circle transform="matrix(.4433 -.8964 .8964 .4433 -809.8 1729)" cx="987.3" cy="1517" r="17.54" fill="#baa4ab"/>
<path d="m550.2 1329c4.26-.63-24.9-133.6 97.38-284.7 2.51 5.44 4.94 10.92 7.29 16.46 1.15-9.61 2.32-19.22 3.51-28.85 21.11-23.43 46.46-46.78 76.69-68.8.1-.04-3.53 23.89-16.58 61.79l-.01.01c-11.78 8.39-23.58 17.36-23.57 17.35 6.14-1.06 12.32-2.07 18.52-3.04-28.97 81.3-100.2 214.7-163.2 289.8z" fill="#bec66e"/>
<path d="m528.8 1367c-11.58-99.42 14.26-210.7 37.98-286.6 25.68-82.12 54.48-141.6 54.77-142.2l4.33 2.11c-.29.59-28.95 59.78-54.52 141.6-23.57 75.39-49.25 185.9-37.77 284.5z" fill="#cfd68b"/>
<path d="m554.8 1385c-1.27.09-8.21-26.59-29.93-70.16-19.98-43.35-54.74-103.6-71.6-165.5 7.63 1.33 15.18 2.81 22.62 4.44-8.03-5.35-16.35-10.59-24.96-15.71-2.45-13.88-3.31-27.78-1.69-41.4-.15-.18 41.52 32.71 72.32 80.1v.01c-2.97 6.51-5.8 13.1-8.48 19.77 5.02-3.06 10.16-5.99 15.42-8.78 41.27 65.53 48.17 141.7 26.3 197.2z" fill="#c5cc78"/><g fill="#cfd68b">
<path d="m665.5 1261s-.01.01 0 0c-13.06.45-31.1 2.24-31.03 2.29 8.21 1.43 16.39 3.02 24.53 4.78-1.87 2.02-3.76 4.02-5.65 5.98-13.69 1.2-26.61 2.95-38.72 5.17 10.03.91 20.11 2.11 30.23 3.59-31.81 30.86-52.98 57.76-62.48 77.04-10.13 19.26-8.6 30.9-9.59 30.68-13.9-39.93-21.25-75.52-7.61-103 12.08-27.6 45.15-47.13 75.86-56.57.25 4 .41 7.99.5 11.98 1.89-4.63 3.8-9.26 5.75-13.88 26.64-7.69 48.8-9.13 48.63-9.19-8.07 15.07-19.07 28.61-30.42 41.18z"/>
<path d="m543 1385-4.77-.65c13.79-101.8-10.35-225.8-33.03-312-24.6-93.44-52.85-163.7-53.13-164.4l4.46-1.8c.28.7 28.62 71.16 53.31 164.9 22.8 86.57 47.06 211.3 33.16 313.9z"/>
<path d="m520.7 1127c-.48 0-21.8-30.55-51.27-66.68-28.69-38.2-65.63-82.06-75.37-151.5 7.41-1.21 14.79-2.09 22.15-2.66-7.65-3.49-15.41-6.63-23.27-9.34-1.58-23.22.32-49.61 8.13-79.94l.03.03c.64.16 22.2 4.94 45.52 25.61v.03c-3.92 11.81-7.38 23.84-7.57 24.59 5.29-5.48 10.68-10.9 16.21-16.32 24.45 24.16 45.58 67.43 55.7 120.4 10.87 52.12 10.76 114 9.74 155.7z"/>
<path d="m542.4 1360c-4.47-54.72-24.63-96.54-59.92-124.3-65.82-51.78-163-37.2-164-37.05l-.75-4.75c.25-.04 25.27-3.89 58.21-1.14 30.46 2.54 74.19 11.4 109.5 39.16 36.39 28.63 57.16 71.59 61.74 127.7z"/>
<path d="m528.5 1388c-.13.21-.03-.27.03-1.4.03-.03 0-.05 0-.05.03-.62.05-1.4.03-2.34-.24-12.4-8.05-53.85-101.9-111.8 6.33-.72 12.67-1.37 19-1.91-8.97-1.42-18.23-2.68-27.86-3.7-9.82-6.17-20.21-12.51-31.06-19.09 4.48 0 8.88.03 13.29.11-6.68-1.61-13.53-3.11-20.62-4.54-5.15-3.14-10.44-6.34-15.73-9.58-4.24-.4 72.56-.27 124.7 25.31 54.48 23.79 84.38 72.99 40.07 129z"/>
</g><path d="m520.7 1127c-17.69-100.2-118-306.8-119.6-310.1.64.16 22.2 4.94 45.52 25.61v.03c-3.92 11.81-7.38 23.84-7.57 24.59 5.29-5.48 10.68-10.9 16.21-16.32 24.45 24.16 45.58 67.43 55.7 120.4 10.88 52.12 10.77 114 9.75 155.7z" fill="#c5cc78"/>
<linearGradient id="SVGID_11_" x1="528.5" x2="528.5" y1="1388" y2="1388" gradientUnits="userSpaceOnUse">
<stop stop-color="#86A1F9" offset="0"/>
<stop stop-color="#B7C6FB" offset=".6576"/>
</linearGradient>
<path d="m528.5 1387c0 .46 0 .91-.03 1.4-.13.21-.02-.27.03-1.4z" fill="url(#SVGID_11_)"/>
<path d="m528.6 1385c-.24-12.4-8.05-53.85-101.9-111.8 6.33-.72 12.67-1.37 19-1.91-8.97-1.42-18.23-2.68-27.86-3.7-9.82-6.17-20.21-12.51-31.06-19.09 4.48 0 8.88.03 13.29.11-6.68-1.61-13.53-3.11-20.62-4.54-5.15-3.14-10.44-6.34-15.73-9.58 0 .01 165.7 15.52 164.9 150.5z" fill="#c5cc78"/>
<linearGradient id="SVGID_12_" x1="662.1" x2="415.4" y1="1445" y2="1451" gradientUnits="userSpaceOnUse">
<stop stop-color="#B59FA8" offset="0"/>
<stop stop-color="#CDB9B9" offset="1"/>
</linearGradient>
<polygon points="639.9 1542 474.6 1542 490.6 1396 491.7 1386 492.2 1381 493.4 1371 495.5 1352 619 1352 621.1 1371 622.2 1381 622.8 1386 623.9 1396" fill="url(#SVGID_12_)"/>
<polygon points="639.8 1542 474.5 1542 490.6 1396 491.7 1386 492.2 1381 493.3 1371 495.4 1352 618.9 1352 621.1 1371 622.2 1381 622.7 1386 623.8 1396" fill="#b8bfe8"/><g fill="#a399d3">
<polygon points="491.7 1386 492.2 1381 493.3 1371 495.4 1352 529.8 1352 521.2 1542 474.5 1542 490.6 1396"/>
<polygon points="623.9 1396 490.6 1396 491.7 1386 622.8 1386"/>
<polygon points="622.2 1381 492.2 1381 493.4 1371 621.1 1371"/>
</g>
<path d="m1600 854.6c-1.9 0-3.66-1.21-4.28-3.11l-29.78-91.57c-.77-2.36.52-4.9 2.89-5.67s4.9.52 5.67 2.89l29.78 91.57c.77 2.36-.52 4.9-2.89 5.67-.46.15-.93.22-1.39.22z" fill="#862a59"/>
<path d="m1609 856.5c-.11 0-.22 0-.33-.01-2.27-.18-3.96-2.17-3.78-4.44l9.21-115.7c.18-2.27 2.17-3.97 4.44-3.78 2.27.18 3.96 2.17 3.78 4.44l-9.21 115.7c-.18 2.16-1.98 3.79-4.11 3.79z" fill="#5f497f"/>
<path d="m1588 875.3c-.53 0-1.08-.1-1.6-.3-2.32-.89-3.49-3.49-2.6-5.81l41.16-107.9c.89-2.32 3.49-3.49 5.81-2.6s3.49 3.49 2.6 5.81l-41.16 107.9c-.69 1.8-2.39 2.9-4.21 2.9z" fill="#d22121"/>
<path d="m1597 928.3c-18.9 0-33.59-16.44-31.46-35.22l8.16-72.15h46.61l8.16 72.15c2.11 18.78-12.58 35.22-31.47 35.22z" fill="#fff"/>
<path d="m1604 927.4c-2.31.57-4.74.85-7.23.85-18.88 0-33.6-16.45-31.45-35.21l8.15-72.16h14.46l-8.18 72.16c-1.83 16.3 9 30.82 24.25 34.36z" fill="#adb8ff" opacity=".5"/>
<path transform="matrix(2.097 0 0 2.066 -138.4 206.5)" d="m615.7 105.1c0-.3216.1854-2.252.412-4.29l.412-3.705h7.482c4.115 0 7.477.1158 7.471.2574-.006.1416-.2328 1.879-.504 3.861-.2712 1.982-.498 3.797-.504 4.033-.008.3296-1.721.429-7.39.429-6.723 0-7.379-.052-7.379-.5848z" fill="#d7deed" style="paint-order:fill markers stroke"/></g>
</g><g transform="matrix(.4766 0 0 .4843 66.04 -99.98)" style="">
<path d="m1707 578.1h-277.9c-9.27 0-16.04-7.51-15.13-16.78l16.27-165.5h311.4l-16.27 165.5c-.9 9.27-9.15 16.78-18.42 16.78z" fill="#e5f4c7"/>

<path d="m1742 395.8h-311.4l2.52-25.61c.91-9.27 9.16-16.78 18.43-16.78h277.9c9.27 0 16.04 7.51 15.13 16.78z" fill="#9ad027"/>
</g><g transform="matrix(.1815 0 -.02101 .1233 777.3 98.29)"><g fill="#4caf50"><g transform="matrix(.9564 0 .005816 1.007 4.278 20.41)">
<path d="m139.8 498.2h51.2v-170.7h-51.2zm171.5 0h50.35v-153.6h-50.35zm84.48 0h51.2v-273.1h-51.2zm-170.7 0h51.2v-204.8h-51.2zm-170.7 0h51.2v-102.4h-51.2z"/>
<path d="m250.7 54.47c14.51 0 25.6 11.09 25.6 25.6 0 6.827-2.56 13.65-7.68 17.92-4.267 4.267-11.09 7.68-17.92 7.68-14.51 0-25.6-11.09-25.6-25.6s11.09-25.6 25.6-25.6zm103.3 93.01c4.267 4.267 7.68 11.09 7.68 17.92 0 14.51-11.09 25.6-25.6 25.6s-25.6-11.09-25.6-25.6c0-6.827 2.56-13.65 7.68-17.92 4.267-4.267 11.09-7.68 17.92-7.68s13.65 2.56 17.92 7.68zm118.6-144.2c14.51 0 25.6 11.09 25.6 25.6s-11.09 25.6-25.6 25.6c-6.827 0-13.65-2.56-17.92-7.68-4.267-4.267-7.68-11.09-7.68-17.92 0-14.51 11.09-25.6 25.6-25.6zm-443.7 256c14.51 0 25.6 11.09 25.6 25.6s-11.09 25.6-25.6 25.6-25.6-11.09-25.6-25.6 11.09-25.6 25.6-25.6z"/>
</g><g stroke-width=".9812"><path d="m483.7 526.2h-473.3c-2.448 0-4.091-1.718-4.106-4.295-.01487-2.577 1.608-4.295 4.056-4.295h44.89l-.5707-98.78c-.01487-2.577 1.608-4.295 4.056-4.295h48.97c2.448 0 4.091 1.718 4.106 4.295l.5707 98.78h24.48l-.9678-167.5c-.0146-2.577 1.608-4.295 4.056-4.295h48.97c2.448 0 4.091 1.718 4.106 4.295l.9678 167.5h24.48l-1.166-201.9c-.0146-2.577 1.608-4.295 4.056-4.295h48.97c2.448 0 4.091 1.718 4.106 4.295l1.166 201.9h25.3l-.8685-150.3c-.0146-2.577 1.608-4.295 4.056-4.295h48.15c2.448 0 4.091 1.718 4.106 4.295l.8685 150.3h24.48l-1.563-270.6c-.0146-2.577 1.608-4.295 4.056-4.295h48.97c2.448 0 4.091 1.718 4.106 4.295l1.563 270.6h44.89c2.448 0 4.091 1.718 4.106 4.295.0146 2.577-1.608 4.295-4.056 4.295z"/><path d="m389.8 517.6h40.81l-1.539-266.3h-40.81z"/><path d="m309 517.6h39.99l-.8437-146h-39.99z"/><path d="m226.5 517.6h40.81l-1.141-197.6h-40.81z"/><path d="m144.9 517.6h40.81l-.943-163.2h-40.81z"/><path d="m63.32 517.6h40.81l-.5459-94.49h-40.81z"/><path d="m33.72 337.2c-15.51 0-28.64-13.74-28.74-30.06-.09429-16.32 12.88-30.07 28.39-30.07 8.161 0 16.35 4.295 21.28 10.31l163.9-173.5c-1.652-3.436-2.493-7.731-2.523-12.88-.0943-16.32 12.88-30.07 28.39-30.07s28.64 13.74 28.74 30.07c.0395 6.872-2.374 12.88-5.608 18.04l41.88 43.81c4.877-3.436 10.57-6.013 17.1-6.013s12.26 2.577 17.17 6.013l90.04-95.35c-3.294-5.154-5.777-11.17-5.817-18.04-.0943-16.32 12.88-30.07 28.39-30.07s28.64 13.74 28.74 30.07c.0943 16.32-12.88 30.06-28.39 30.06-6.529 0-12.26-2.577-17.17-6.013l-90.04 95.35c3.294 5.154 5.777 11.17 5.817 18.04.0943 16.32-12.88 30.07-28.39 30.07s-28.64-13.74-28.74-30.07c-.0395-6.872 2.374-12.88 5.608-18.04l-41.88-43.81c-4.877 3.436-10.57 6.013-17.1 6.013-8.161 0-16.35-4.295-21.28-10.31l-163.9 173.5c1.652 3.436 2.493 7.731 2.523 12.89.09429 16.32-12.88 30.06-28.39 30.06z"/><path d="m33.42 285.7c-11.43 0-20.35 9.449-20.28 21.47.06948 12.03 9.102 21.47 20.53 21.47s20.35-9.448 20.28-21.47c-.06948-12.03-9.102-21.48-20.53-21.48z"/><path d="m326.5 165.4c-11.43 0-20.35 9.449-20.28 21.47.0695 12.03 9.102 21.47 20.53 21.47 11.42 0 20.35-9.448 20.28-21.47-.0695-12.03-9.102-21.47-20.53-21.47z"/><path d="m244.4 79.53c-11.43 0-20.35 9.449-20.28 21.47.0695 12.03 9.102 21.47 20.53 21.47 11.43 0 20.35-9.449 20.28-21.47-.0695-12.03-9.101-21.47-20.53-21.47z"/><path d="m442.6 64.93c3.284 3.436 9.012 6.013 13.91 6.013 11.43 0 20.35-9.449 20.28-21.47-.0694-12.03-9.101-21.48-20.53-21.48s-20.35 9.449-20.28 21.47c.0344 6.014 2.513 11.17 6.618 15.46-.8208-.8587-.8208-.8587 0 0z"/></g></g></g><g transform="matrix(1.059 0 0 1.028 -42.06 -3.412)" fill="none" stroke="#000" stroke-linecap="round"><path d="m635.5 107.5h8.611l-.8506 7.593h-8.611zm-15.13.1038h14.28l-.8319 7.425h-14.28zm-9.393 0h8.611l-.8506 7.593h-8.611zm1.172-10.36h8.607l-1.067 9.521h-8.607zm24.57 0h8.607l-1.067 9.521h-8.607zm-15.12.1131h14.26l-1.045 9.331h-14.26zm16.01-8.522h8.612l-.8506 7.592h-8.612zm-15.08.1003h14.29l-.8319 7.425h-14.29zm-9.427-.0911h8.612l-.8506 7.592h-8.612zm-.3428-.3443h33.8l-3.028 27.03h-33.8z" stroke-width=".6471" style="paint-order:fill markers stroke"/></g></svg>
