<?xml version="1.0" encoding="UTF-8"?>
<!DOCTYPE svg PUBLIC "-//W3C//DTD SVG 1.1//EN" "http://www.w3.org/Graphics/SVG/1.1/DTD/svg11.dtd">
<svg xmlns="http://www.w3.org/2000/svg" version="1.1" width="120px" height="120px" style="shape-rendering:geometricPrecision; text-rendering:geometricPrecision; image-rendering:optimizeQuality; fill-rule:evenodd; clip-rule:evenodd" xmlns:xlink="http://www.w3.org/1999/xlink">
<g><path style="opacity:0.974" fill="#20a265" d="M 74.5,6.5 C 74.5,15.5 74.5,24.5 74.5,33.5C 71.8333,33.5 69.1667,33.5 66.5,33.5C 66.6621,31.4727 66.4955,29.4727 66,27.5C 65.2496,26.8742 64.4162,26.3742 63.5,26C 52.1716,25.5001 40.8382,25.3335 29.5,25.5C 29.3339,19.8236 29.5006,14.1569 30,8.5C 30.5,8 31,7.5 31.5,7C 45.8295,6.50009 60.1628,6.33342 74.5,6.5 Z"/></g>
<g><path style="opacity:0.979" fill="#32c380" d="M 74.5,6.5 C 88.8372,6.33342 103.171,6.50009 117.5,7C 118.044,7.71719 118.711,8.21719 119.5,8.5C 119.5,16.8333 119.5,25.1667 119.5,33.5C 104.5,33.5 89.5,33.5 74.5,33.5C 74.5,24.5 74.5,15.5 74.5,6.5 Z"/></g>
<g><path style="opacity:1" fill="#1e925c" d="M 29.5,25.5 C 40.8382,25.3335 52.1716,25.5001 63.5,26C 64.4162,26.3742 65.2496,26.8742 66,27.5C 66.4955,29.4727 66.6621,31.4727 66.5,33.5C 65.5,33.5 64.5,33.5 63.5,33.5C 62.145,30.4823 59.8116,29.149 56.5,29.5C 47.5,29.5 38.5,29.5 29.5,29.5C 29.5,28.1667 29.5,26.8333 29.5,25.5 Z"/></g>
<g><path style="opacity:0.998" fill="#127c42" d="M 29.5,29.5 C 38.5,29.5 47.5,29.5 56.5,29.5C 57.1217,30.6266 57.955,31.6266 59,32.5C 59.4998,41.4938 59.6664,50.4938 59.5,59.5C 59.8066,68.887 59.4733,78.2203 58.5,87.5C 57.9747,88.1924 57.3081,88.6924 56.5,89C 47.5062,89.4998 38.5062,89.6664 29.5,89.5C 20.1607,89.6665 10.8274,89.4998 1.5,89C 0.955796,88.2828 0.28913,87.7828 -0.5,87.5C -0.5,68.8333 -0.5,50.1667 -0.5,31.5C 0.28913,31.2172 0.955796,30.7172 1.5,30C 10.8274,29.5002 20.1607,29.3335 29.5,29.5 Z"/></g>
<g><path style="opacity:1" fill="#094a27" d="M 56.5,29.5 C 59.8116,29.149 62.145,30.4823 63.5,33.5C 63.5,42.1667 63.5,50.8333 63.5,59.5C 62.1667,59.5 60.8333,59.5 59.5,59.5C 59.6664,50.4938 59.4998,41.4938 59,32.5C 57.955,31.6266 57.1217,30.6266 56.5,29.5 Z"/></g>
<g><path style="opacity:1" fill="#0f783f" d="M 63.5,33.5 C 64.5,33.5 65.5,33.5 66.5,33.5C 69.1667,33.5 71.8333,33.5 74.5,33.5C 74.5,42.1667 74.5,50.8333 74.5,59.5C 70.8333,59.5 67.1667,59.5 63.5,59.5C 63.5,50.8333 63.5,42.1667 63.5,33.5 Z"/></g>
<g><path style="opacity:1" fill="#21a365" d="M 74.5,33.5 C 89.5,33.5 104.5,33.5 119.5,33.5C 119.5,42.1667 119.5,50.8333 119.5,59.5C 104.5,59.5 89.5,59.5 74.5,59.5C 74.5,50.8333 74.5,42.1667 74.5,33.5 Z"/></g>
<g><path style="opacity:1" fill="#f5f9f7" d="M 14.5,40.5 C 17.1873,40.3359 19.854,40.5026 22.5,41C 24.8732,45.5806 27.3732,50.0806 30,54.5C 32.5,50.1667 35,45.8333 37.5,41.5C 40.1667,40.1667 42.8333,40.1667 45.5,41.5C 41.8333,47.5 38.1667,53.5 34.5,59.5C 38.1667,65.5 41.8333,71.5 45.5,77.5C 42.8938,78.6517 40.2272,78.8184 37.5,78C 34.8724,73.2451 32.3724,68.4118 30,63.5C 27.1667,68.3333 24.3333,73.1667 21.5,78C 18.7728,78.8184 16.1062,78.6517 13.5,77.5C 17.3817,71.4538 21.0484,65.2871 24.5,59C 20.7677,53.0344 17.4343,46.8677 14.5,40.5 Z"/></g>
<g><path style="opacity:1" fill="#0d321d" d="M 59.5,59.5 C 60.8333,59.5 62.1667,59.5 63.5,59.5C 63.5,69.8333 63.5,80.1667 63.5,90.5C 62.3734,91.1217 61.3734,91.955 60.5,93C 50.172,93.4998 39.8387,93.6665 29.5,93.5C 29.5,92.1667 29.5,90.8333 29.5,89.5C 38.5062,89.6664 47.5062,89.4998 56.5,89C 57.3081,88.6924 57.9747,88.1924 58.5,87.5C 59.4733,78.2203 59.8066,68.887 59.5,59.5 Z"/></g>
<g><path style="opacity:0.98" fill="#175b36" d="M 63.5,59.5 C 67.1667,59.5 70.8333,59.5 74.5,59.5C 74.5,68.1667 74.5,76.8333 74.5,85.5C 89.5,85.5 104.5,85.5 119.5,85.5C 119.5,93.8333 119.5,102.167 119.5,110.5C 118.711,110.783 118.044,111.283 117.5,112C 88.8333,112.667 60.1667,112.667 31.5,112C 31,111.5 30.5,111 30,110.5C 29.5017,107.183 29.335,103.85 29.5,100.5C 39.8387,100.666 50.172,100.5 60.5,100C 61.6667,99.5 62.5,98.6667 63,97.5C 63.4966,95.1902 63.6633,92.8568 63.5,90.5C 63.5,80.1667 63.5,69.8333 63.5,59.5 Z"/></g>
<g><path style="opacity:1" fill="#107c40" d="M 74.5,59.5 C 89.5,59.5 104.5,59.5 119.5,59.5C 119.5,68.1667 119.5,76.8333 119.5,85.5C 104.5,85.5 89.5,85.5 74.5,85.5C 74.5,76.8333 74.5,68.1667 74.5,59.5 Z"/></g>
<g><path style="opacity:1" fill="#12472a" d="M 63.5,90.5 C 63.6633,92.8568 63.4966,95.1902 63,97.5C 62.5,98.6667 61.6667,99.5 60.5,100C 50.172,100.5 39.8387,100.666 29.5,100.5C 29.5,98.1667 29.5,95.8333 29.5,93.5C 39.8387,93.6665 50.172,93.4998 60.5,93C 61.3734,91.955 62.3734,91.1217 63.5,90.5 Z"/></g>
</svg>
