<svg version="1.1" viewBox="0 0 304.3 89.04" xmlns="http://www.w3.org/2000/svg">
 <g transform="matrix(1.249 0 0 1.426 18.01 -18.83)" fill="#fff" stroke="#fff" stroke-linecap="round" stroke-linejoin="round" aria-label="Microsoft Excel">
  <path d="m155.7 38.08h-14.42v-19.23h14.42v3.719h-9.303v3.319h8.634v3.719h-8.634v4.753h9.303zm19.77 0h-5.622l-3.213-4.339-3.293 4.339h-5.515l5.93-7.245-5.836-7.258h5.622l3.159 4.262 3.172-4.262h5.528l-5.85 7.142zm10.48 0.3874c-2.546 0.0051-5.319-0.574-7.117-2.484-1.725-1.819-2.071-4.505-1.658-6.876 0.3711-2.309 2.065-4.318 4.271-5.154 3.078-1.173 6.641-1.009 9.618 0.3851v3.965c-0.3572-0.01338-0.7572 0.09382-0.9939-0.2518-1.576-1.385-3.964-2.032-5.955-1.18-1.527 0.6923-2.158 2.454-2.113 4.015-0.0367 1.425 0.4555 3.038 1.813 3.749 1.4 0.7187 3.128 0.6423 4.575 0.09626 0.7866-0.2715 1.407-0.8731 2.038-1.353 0.2327 0.05598 0.7448-0.1635 0.6363 0.2288v3.736c-1.599 0.7212-3.349 1.146-5.113 1.124zm18.3-9.505q-0.0401-1.459-0.7496-2.196-0.7094-0.7361-2.209-0.7361-1.392 0-2.289 0.6974-0.8968 0.6974-1.004 2.234zm4.792 2.725h-11.03c0.0214 1.397 0.9742 2.702 2.332 3.123 2.636 0.858 5.627 0.2689 7.881-1.277 0.3408-0.0318 0.6637-0.04604 0.5354 0.3845v3.348c-3.019 1.229-6.409 1.518-9.605 0.8771-2.284-0.4545-4.511-1.821-5.414-4.019-0.7928-1.944-0.7876-4.177-0.1351-6.159 0.8247-2.476 3.197-4.208 5.753-4.636 2.215-0.3656 4.623-0.3277 6.652 0.7218 1.947 1.012 2.932 3.198 3.008 5.292 0.04 0.7802 0.0151 1.562 0.0221 2.343zm8.219 6.393h-4.819v-20.1h4.819z" stroke-width=".6366" style="paint-order:normal"/>
 </g>
 <g transform="matrix(.8741 0 0 .8595 32.24 6.185)">
  <g transform="matrix(.8512 0 0 1 15.33 .9502)" stroke-width="1.107">
   <path d="m90.84 51.99c-0.3254 1.206-1.564 2.099-2.127 0.5066-2.427-4.498-4.682-8.519-7.121-13.01-1.163-1.047-3.163-0.1532-4.656-0.3867-1.443 0.2603-3.349-0.3961-4.502 0.4544 0.2528 5.084 0.3963 9.636 0.3796 14.74-0.08763 4.066-0.5059 8.126-0.4494 12.19 0.4152 0.5646 1.345 0.2032 1.994 0.3062 2.237-0.02813 4.483 0.057 6.714-0.04392 0.8012-1.224 0.1624-3.033 0.3064-4.503-0.04472-2.768-0.2255-5.541-0.1319-8.306 0.7542-5.13e-4 1.289 2.123 1.908 3.002 1.673 3.282 3.198 6.641 5.009 9.852 1.249 0.8862 3.28 0.4962 3.458-1.268 1.877-4.244 2.753-8.834 3.696-13.35 0.822-4.499 1.128-8.544 1.293-13.11-1.981 1.528-2.591 4.136-3.379 6.388-0.7743 2.355-1.298 4.305-2.393 6.542zm21.17-12.99c1.415-0.2913 3.24 0.3429 4.828 0.0953 1.344 0.01098 4.198-0.9522 3.515 1.455-0.1518 6.342-0.6293 12.69-0.2015 19.03 0.0875 2.45 0.286 4.908 0.1926 7.356-0.4738 0.6076-1.381 0.2552-2.065 0.3501h-6.805c-0.2903-1.395 0.2687-3.175 0.1004-4.735 0.0236-4.761 0.0986-9.522 0.2689-14.28 0.0553-3.091 0.1106-6.181 0.1658-9.272zm-13.95 0.04543c1.415-0.2913 3.24 0.3429 4.828 0.0953 1.344 0.011 4.198-0.9522 3.515 1.455-0.1518 6.342-0.6991 12.16-0.2713 18.5 0.0875 2.45 0.2162 5.383 0.1228 7.831-0.4738 0.6076-1.381 0.2552-2.065 0.3501l-6.665 0.1782c-0.2903-1.395 0.2687-3.175 0.1004-4.735 0.0236-4.761 0.02883-10.18 0.1991-14.93 0.0553-3.091 0.1803-5.647 0.2356-8.738z" fill="#fff"/>
   <g fill="#fdfdfd">
    <path d="m183.8 67.09c-1.085 0.4901-2.464 0.217-3.669 0.317-1.987-0.02891-3.998 0.1027-5.965-0.2166-0.8309-1.078-1.131-2.507-1.796-3.7-0.8221-1.72-1.617-3.458-2.515-5.138-1.204-1.047-2.194-0.5217-3.659-0.6387-1.602-0.07517-0.6363 2.268-0.7869 3.256 0.1187 2.062 0.5612 4.127 0.4203 6.19-1.184 0.3872-2.619 0.144-3.891 0.2472-1.829-0.0447-3.693 0.1296-5.497-0.2007-0.8222-1.015-0.1475-2.678-0.2975-3.953 0.2343-4.802 0.5346-9.606 0.3716-14.42-0.0534-3.02-0.1522-6.041-0.4304-9.05 0.8873-0.9571 2.633-0.3773 3.863-0.6123 4.15-0.07552 8.304-0.2475 12.45-0.1202 3.571 0.2283 7.506 1.364 9.639 4.451 1.578 2.431 1.458 5.622 0.5549 8.273-0.7776 2.008-2.653 3.226-4.34 4.401-0.0201 1.213 1.285 2.405 1.74 3.612 1.283 2.349 2.704 4.635 3.759 7.098l0.0444 0.2014zm-9.773-18.01c0.1248-1.689-0.9997-3.355-2.685-3.709-1.748-0.427-3.604-0.5387-5.384-0.261-1.364 0.5677-0.5382 2.586-0.7957 3.784 0.309 1.044-0.6123 3.129 0.6154 3.473 2.257 0.2217 4.728 0.5401 6.811-0.5618 0.9691-0.5429 1.472-1.639 1.438-2.726z"/>
    <path d="m218.7 53.24c0.094 4.169-1.851 8.267-5.079 10.89-4.492 3.855-10.95 4.657-16.56 3.293-5.657-1.418-10.68-6.17-11.4-12.11-0.6276-4.278 0.7066-8.847 3.818-11.9 3.332-3.542 8.282-5.203 13.08-5.029 4.954-0.0017 9.936 2.129 13.06 6.03 2.049 2.455 3.121 5.632 3.088 8.822zm-8.819-0.0401c0.1358-3.793-3.198-7.126-6.93-7.293-3.099-0.3864-6.249 1.283-7.75 4.004-1.878 3.239-0.6107 7.82 2.704 9.582 3.244 1.785 7.754 1.249 10.18-1.666 1.141-1.257 1.819-2.921 1.796-4.626z"/>
    <path d="m234.1 65.04c-3.043 1.625-9.857 2.064-13.36 1.268l-0.7331-6.087c0-0.1472 0.1163-0.2409 0.349-0.2811 2.249 1.07 4.824 1.031 5.553 0.7234 2.081-0.475 3.614-1.771 3.614-3.136 0-0.87-0.5274-1.84-1.582-2.911-1.83-1.82-2.823-2.831-2.978-3.032-1.07-1.392-2.8-2.887-2.8-4.573 0-2.449 1.311-4.484 3.932-6.103 3.954-2.445 9.439-2.085 13.53-1.658l-2.737 5.718c-2.432-0.519-5.183 0.02222-5.232 2.304 0 0.8164 0.5585 1.82 1.675 3.011 1.97 2.141 3.002 3.266 3.095 3.373 4.446 4.46 1.951 8.959-2.327 11.38z"/>
    <path d="m274.3 53.24c0.094 4.169-1.851 8.267-5.079 10.89-4.492 3.855-10.95 4.657-16.56 3.293-5.657-1.418-10.68-6.17-11.4-12.11-0.6276-4.278 0.7066-8.847 3.818-11.9 3.332-3.542 8.282-5.203 13.08-5.029 4.954-0.0017 9.936 2.129 13.06 6.03 2.049 2.455 3.121 5.632 3.088 8.822zm-8.819-0.0401c0.1358-3.793-3.198-7.126-6.93-7.293-3.099-0.3864-6.249 1.283-7.75 4.004-1.878 3.239-0.6107 7.82 2.704 9.582 3.244 1.785 7.754 1.249 10.18-1.666 1.141-1.257 1.819-2.921 1.796-4.626z"/>
    <path d="m301.8 45.67c-0.9664 0.5259-2.394 0.046-3.538 0.1084-3.374-0.1612-6.774-0.6524-10.14-0.269-1.174 0.7258-1.048 2.597-0.4246 3.668 1.219 0.9595 2.965 0.3599 4.407 0.4832 2.435-0.06918 4.867-0.2479 7.303-0.2567 1.034 0.822 0.6407 2.512 0.7676 3.723-0.1161 1.201 0.2374 2.642-0.4942 3.655-1.192 0.1415-2.442-0.1806-3.662-0.1561-2.614-0.06585-5.242-0.1813-7.85-0.02616-1.492 0.2485-0.7248 2.051-0.8693 3.074 0.0681 2.476 0.3118 4.957 0.4497 7.42-1.041 0.8644-2.509 0.2904-3.783 0.4583-1.875-0.05906-3.797 0.07833-5.634-0.3523-0.8019-0.9532-0.1672-2.533-0.328-3.743 0.1574-5.365 0.5202-10.74 0.0682-16.1-0.1752-2.549-0.3373-5.099-0.5153-7.647 0.7011-1.057 2.53-0.2673 3.71-0.476 4.562 0.08471 9.131 0.1989 13.68-0.1895 1.81-0.07706 3.631-0.2713 5.44-0.1464 1.383 0.451 0.5758 2.278 0.8784 3.362 0.129 1.145 0.5054 2.256 0.5352 3.413z"/>
    <path d="m329.5 45.27c-0.857 0.9065-2.698 0.08491-3.927 0.2718-1.132 0.06929-2.709-0.3456-3.593-0.01347-0.2003 5.161-0.1578 10.33 0.1412 15.48 0.0495 2 0.2403 4.017 0.1133 6.01-1.188 0.5839-2.758 0.2993-4.092 0.4278-1.768-0.02734-3.565 0.08889-5.308-0.2332-0.774-0.965-0.1576-2.524-0.3008-3.731 0.2038-5.179 0.5708-10.36 0.295-15.55-0.2108-1.008 0.5234-3.081-1.215-2.375-2.183 0.1331-4.384 0.3843-6.568 0.2572-0.1627-1.09 0.52-2.276 0.6515-3.403 0.265-1.05-0.1911-2.793 0.826-3.388 4.765 0.4387 9.565 0.5328 14.35 0.3413 2.723-0.1069 5.441-0.3908 8.162-0.4718 0.6192 1.009-0.0243 2.632 0.1885 3.882 0.0497 0.8342 0.2674 1.651 0.2827 2.487z"/>
   </g>
   <g transform="matrix(1.215,0,0,1.027,-23.45,-2.793)" fill="#fff" aria-label="C">
    <path d="m144.6 63.76q0 0.3125-0.4102 0.8203-3.594 4.277-9.551 4.277-6.094 0-9.883-4.16-3.691-4.023-3.691-10.16 0-5.938 3.613-10.08 3.77-4.336 9.59-4.336 6.328 0 9.922 3.887 0.3906 0.4297 0.3906 0.7617 0 0.3711-1.367 2.754-1.348 2.383-1.699 2.676-0.1562 0.1562-0.3906 0.1562-0.0977 0-0.9766-0.7812-1.055-0.9375-2.07-1.465-1.543-0.7812-3.203-0.7812-2.871 0-4.59 2.148-1.582 1.992-1.582 4.922 0 2.969 1.582 4.98 1.719 2.188 4.59 2.188 1.699 0 3.223-0.7422 0.9961-0.4883 2.031-1.367 0.8594-0.7422 0.957-0.7422 0.1953 0 0.3906 0.2148 0.3125 0.3516 1.699 2.441 1.426 2.168 1.426 2.383z"/>
   </g>
  </g>
 </g>
 <g stroke-linecap="round" stroke-linejoin="round">
  <path d="m37.85 11.38-18.15 0.07317c-5.547 0.02362-8.783 6.644-5.601 11.46l15.73 23.78-15.58 22.89c-3.266 4.798-0.05505 11.5 5.528 11.54l16.4 0.1189c2.504 0.01707 4.819-1.411 6.041-3.727l6.101-11.55 7.487 12.32c1.261 2.074 3.428 3.331 5.756 3.338l16.84 0.05943c5.759 0.01568 8.98-7.033 5.398-11.81l-17.73-23.65 17.8-22.91c3.711-4.773 0.4722-11.97-5.364-11.91l-19.27 0.1738c-2.591 0.02452-4.948 1.591-6.097 4.051l-4.531 9.694-4.574-9.873c-1.16-2.5-3.563-4.08-6.192-4.07z" color="#000000" fill="#4caf50" stroke-width="2.274" style="-inkscape-stroke:none;paint-order:stroke fill markers"/>
  <path d="m49.34 54.2c-0.4054-0.5179-0.8108-1.497-1.229-2.929l-0.1552 0.0036c-0.1979 0.6829-0.6714 1.729-1.395 3.126l-10.33 19.56-16.4-0.1176 18.43-27.09-18.53-28.02 18.15-0.07408 8.837 19.07c0.6769 1.032 1.264 2.266 1.803 3.685l0.1723-0.0036c0.3314-0.8599 0.973-2.169 1.894-3.889l8.72-18.67 19.27-0.173-21.33 27.46 21.18 28.26-16.84-0.05667z" color="#000000" fill="#fff" stroke-width="14.15" style="-inkscape-stroke:none;paint-order:stroke fill markers"/>
 </g>
 <text x="99.783897" y="80.089096" fill="#ffffff" font-family="sans-serif" font-size="13px" font-weight="bold" style="line-height:1.25" xml:space="preserve"><tspan x="99.783897" y="80.089096" fill="#ffffff" font-family="Arial" font-size="13px" font-weight="900">НЕОФИЦИАЛЬНЫЙ САЙТ</tspan></text>
 <path d="m99.32 14.55 87.5 0.1188v7.093l-87.5-0.1188z" fill="#fff" style="paint-order:stroke fill markers"/>
 <path d="m99.32 21.65 87.5 0.1188v7.093l-50.24-0.1188c-1.888-1.7-5.266-3.498-9.443 0h-27.79z" fill="#296aee" style="paint-order:stroke fill markers"/>
 <path d="m99.32 28.74c9.254-0.01485 18.56-0.0042 27.81 0.0037 19.92 0.01695 39.77 0.06364 59.68 0.1151v7.093l-49.06-0.1188c1.222-3.71 0.0964-5.836-1.18-7.09h-9.443c-2.159 2.163-2.455 4.698-1.136 7.09h-26.67z" fill="#d61419" style="paint-order:stroke fill markers"/>
 <ellipse cx="131.8" cy="33.26" rx="4.03" ry="4.197" fill="#fff" stroke-width=".9226" style="paint-order:stroke fill markers"/>
</svg>
