<svg version="1.1" viewBox="0 0 166.6 54.23" xmlns="http://www.w3.org/2000/svg">
 <style type="text/css">.custom-controls {
height: 64px;
fill: #fff;
}
.control-icon {
opacity: 0;
animation: icon-fade-in-out 4s ease-in-out infinite;
animation-fill-mode: forwards;
}
.stop {
animation-delay: .3s;
}
.play {
animation-delay: .5s;
}
.gamepad {
animation-delay: .7s;
padding: 0 0 0 20px;
}
@keyframes icon-fade-in-out {
0% {
opacity: 0;
}
10% {
opacity: 1;
}
80% {
opacity: 1;
}
90% {
opacity: 0;
}
100% {
opacity: 0;
}
}</style>
 <g transform="matrix(.633 0 0 .6169 49.05 -2.983)">
  <path d="m93.84 55.17c.3383-.6686.6383-1.372.8976-2.109 2.969-8.433-1.521-18.54-10.98-20.97-1.022-12.36-10.04-20.83-20.24-22.28-11.66-1.655-22.35 5.475-25.9 16.81-4.284-1.461-8.459-1.283-12.39.9302-1.785.7945-3.418 1.967-4.883 3.509-2.15 2.264-3.549 5.122-4.119 8.135-.8436.1281-1.673.2562-2.454.5253-4.556 1.573-7.431 4.809-8.218 9.685-.4905 3.036.4996 6.064 1.052 7.287 2.182 4.835 7.242 7.576 12.38 6.851.256-.03583.6281.07489.848.2529.2717 7.728 4.17 14.56 10.02 18.47 9.383 6.265 21.46 4.335 29.07-4.256 3.264 3.213 7.147 4.774 11.71 4.207 4.537-.5633 8.06-2.973 10.63-6.891 1.187.3072 2.313.75 3.476.8726 4.558.4797 8.259-1.264 10.98-5.21 1.039-1.51 2.022-3.467 2.022-6.897.0022-3.533-1.457-6.753-3.912-8.913z" fill="#e1eae4" stroke-width="1.106"/>
  <g fill="#fff">
   <g stroke-width="4.059">
    <path d="m-24.99 71.87h-41.72c-1.148 0-2.08-.8873-2.08-1.981 0-1.093.9318-1.981 2.08-1.981h41.72c1.148 0 2.08.8873 2.08 1.981 0 1.093-.9318 1.981-2.08 1.981z"/>
    <path d="m-13 71.87h-6.015c-1.148 0-2.08-.8873-2.08-1.981 0-1.093.9318-1.981 2.08-1.981h6.015c1.148 0 2.08.8873 2.08 1.981 0 1.093-.9318 1.981-2.08 1.981z"/>
    <path d="m3.866 71.87h-10.59c-1.148 0-2.08-.8873-2.08-1.981 0-1.093.9318-1.981 2.08-1.981h10.59c1.148 0 2.08.8873 2.08 1.981 0 1.093-.9318 1.981-2.08 1.981z"/>
    <path d="m3.866 79.25h-40c-1.148 0-2.08-.8873-2.08-1.981 0-1.093.9318-1.981 2.08-1.981h40c1.148 0 2.08.8873 2.08 1.981 0 1.093-.9318 1.981-2.08 1.981z"/>
    <path d="m-43.34 79.25h-2.413c-1.148 0-2.08-.8873-2.08-1.981 0-1.093.9318-1.981 2.08-1.981h2.413c1.148 0 2.08.8873 2.08 1.981 0 1.093-.9318 1.981-2.08 1.981z"/>
    <path d="m-53.23 79.25h-6.057c-1.148 0-2.08-.8873-2.08-1.981 0-1.093.9318-1.981 2.08-1.981h6.057c1.148 0 2.08.8873 2.08 1.981 0 1.093-.9318 1.981-2.08 1.981z"/>
    <path d="m-15.22 64.48h-20.91c-1.148 0-2.08-.8873-2.08-1.981 0-1.093.9318-1.981 2.08-1.981h20.91c1.148 0 2.08.8873 2.08 1.981 0 1.093-.9318 1.981-2.08 1.981z"/>
    <path d="m-15.22 57.09h-5.229c-1.148 0-2.08-.8873-2.08-1.981 0-1.093.9318-1.981 2.08-1.981h5.229c1.148 0 2.08.8873 2.08 1.981 0 1.093-.9318 1.981-2.08 1.981z"/>
    <path d="m-28.82 86.64h-7.317c-1.148 0-2.08-.8873-2.08-1.981 0-1.093.9318-1.981 2.08-1.981h7.317c1.148 0 2.08.8873 2.08 1.981 0 1.093-.9276 1.981-2.08 1.981z"/>
   </g>
   <g stroke-width="4.164">
    <path d="m146.5 34.39h-39.24c-1.08 0-1.956-.9929-1.956-2.216 0-1.223.8763-2.216 1.956-2.216h39.24c1.08 0 1.956.9929 1.956 2.216 0 1.223-.8763 2.216-1.956 2.216z"/>
    <path d="m157.7 34.39h-5.657c-1.08 0-1.956-.9929-1.956-2.216 0-1.223.8763-2.216 1.956-2.216h5.657c1.08 0 1.956.9929 1.956 2.216 0 1.223-.8763 2.216-1.956 2.216z"/>
    <path d="m173.6 34.39h-9.96c-1.08 0-1.956-.9929-1.956-2.216 0-1.223.8763-2.216 1.956-2.216h9.96c1.08 0 1.956.9929 1.956 2.216 0 1.223-.8724 2.216-1.956 2.216z"/>
    <path d="m165.7 17.86h-37.62c-1.08 0-1.956-.9929-1.956-2.216 0-1.223.8763-2.216 1.956-2.216h37.62c1.08 0 1.956.9929 1.956 2.216 0 1.223-.8763 2.216-1.956 2.216z"/>
    <path d="m121.3 17.86h-2.269c-1.08 0-1.956-.9929-1.956-2.216 0-1.223.8763-2.216 1.956-2.216h2.269c1.08 0 1.956.9929 1.956 2.216 0 1.223-.8724 2.216-1.956 2.216z"/>
    <path d="m112 17.86h-5.696c-1.08 0-1.956-.9929-1.956-2.216 0-1.223.8763-2.216 1.956-2.216h5.696c1.08 0 1.956.9929 1.956 2.216 0 1.223-.8724 2.216-1.956 2.216z"/>
    <path d="m155.6 26.12h-19.67c-1.08 0-1.956-.9929-1.956-2.216 0-1.223.8763-2.216 1.956-2.216h19.67c1.08 0 1.956.9929 1.956 2.216 0 1.223-.8724 2.216-1.956 2.216z"/>
    <path d="m155.6 17.86h-4.921c-1.08 0-1.956-.9929-1.956-2.216 0-1.223.8763-2.216 1.956-2.216h4.921c1.08 0 1.956.9929 1.956 2.216 0 1.223-.8724 2.216-1.956 2.216zm-25.36 8.262h-6.881c-1.08 0-1.956-.9929-1.956-2.216 0-1.223.8763-2.216 1.956-2.216h6.881c1.08 0 1.956.9929 1.956 2.216 0 1.223-.8763 2.216-1.956 2.216z"/>
   </g>
  </g>
  <path d="m71.9 67.46h-37.36c-2.295 0-4.172-1.877-4.172-4.172v-27.61c0-2.295 1.877-4.172 4.172-4.172h37.36c2.295 0 4.172 1.877 4.172 4.172v27.61c0 2.295-1.877 4.172-4.172 4.172z" fill="#fff"/>
  <path d="m71.9 68.16h-37.36c-2.687 0-4.873-2.186-4.873-4.872v-27.61c0-2.687 2.187-4.873 4.873-4.873h37.36c2.687 0 4.872 2.186 4.872 4.873v27.61c0 2.686-2.185 4.871-4.872 4.871zm-37.36-35.96c-1.915 0-3.473 1.558-3.473 3.472v27.61c0 1.915 1.558 3.472 3.473 3.472h37.36c1.914 0 3.472-1.557 3.472-3.472v-27.61c0-1.915-1.558-3.472-3.472-3.472h-37.36z" fill="#6d9980"/>
  <path d="m71.24 31.94h-35.79c-2.534 0-4.607 1.962-4.607 4.36v2.18h44.75v-2.18c0-2.398-1.817-4.36-4.351-4.36z" fill="#e8e8e1"/>
  <g fill="#6d9980">
   <path d="m66.52 38.94h-4.093c-.207 0-.375-.168-.375-.375s.168-.375.375-.375h4.093c.207 0 .375.168.375.375s-.168.375-.375.375zm-6.139 0h-30.01c-.207 0-.375-.168-.375-.375s.168-.375.375-.375h30.01c.207 0 .375.168.375.375s-.169.375-.376.375zm15.69 0h-6.139c-.207 0-.375-.168-.375-.375s.168-.375.375-.375h6.139c.207 0 .375.168.375.375s-.168.375-.375.375z"/>
   <path d="m40.78 33.86a1.344 1.344 0 100 2.688 1.344 1.344 0 100-2.688z"/>
   <path d="m40.78 36.92c-.948 0-1.72-.771-1.72-1.719s.771-1.719 1.72-1.719c.947 0 1.719.771 1.719 1.719s-.772 1.719-1.719 1.719zm0-2.688c-.535 0-.97.435-.97.969 0 .535.435.969.97.969.534 0 .969-.435.969-.969-.001-.535-.435-.969-.969-.969z"/>
   <path d="m45.49 33.86a1.344 1.344 0 100 2.688 1.344 1.344 0 100-2.688z"/>
   <path d="m45.49 36.92c-.947 0-1.719-.771-1.719-1.719s.771-1.719 1.719-1.719 1.72.771 1.72 1.719-.772 1.719-1.72 1.719zm0-2.688c-.534 0-.969.435-.969.969 0 .535.435.969.969.969.535 0 .97-.435.97-.969 0-.535-.435-.969-.97-.969z"/>
   <path d="m51.86 63.14h-21.49c-.207 0-.375-.168-.375-.375s.168-.375.375-.375h21.49c.207 0 .375.168.375.375s-.168.375-.375.375z"/>
   <g transform="translate(-4.742 -.05057)">
    <path d="m40.78 33.86a1.344 1.344 0 100 2.688 1.344 1.344 0 100-2.688z"/>
    <path d="m40.78 36.92c-.948 0-1.72-.771-1.72-1.719s.771-1.719 1.72-1.719c.947 0 1.719.771 1.719 1.719s-.772 1.719-1.719 1.719zm0-2.688c-.535 0-.97.435-.97.969 0 .535.435.969.97.969.534 0 .969-.435.969-.969-.001-.535-.435-.969-.969-.969z"/>
   </g>
  </g>
  <g transform="matrix(1.619 0 0 1.591 -83.56 -70.35)">
   <path d="m34.56 68.79h11.76c2.7 0 4.888-2.189 4.888-4.889 0-2.355-1.666-4.321-3.884-4.784.026-.206.043-.415.043-.628 0-2.796-2.267-5.063-5.063-5.063-1.651 0-3.113.794-4.037 2.017-.236-3.113-3.017-5.514-6.27-5.116-2.379.291-4.346 2.13-4.784 4.486-.14.756-.126 1.489.014 2.177-.638-.687-1.546-1.119-2.557-1.119-1.85 0-3.361 1.441-3.48 3.261-.84-.186-1.754-.174-2.717.188-1.84.691-3.15 2.423-3.227 4.387-.109 2.789 2.12 5.085 4.885 5.085h11.27" fill="#fff" style="paint-order:fill markers stroke"/>
   <path d="m21.01 64.92h-.017c-.138-.009-.242-.128-.232-.266.106-1.586 1.574-2.786 3.308-2.674.135.009.271.027.408.053.273-.968 1.254-1.641 2.365-1.568.426.028.824.161 1.163.382.001-.019.002-.037.004-.055.12-1.794 1.798-3.144 3.742-3.022.138.009.242.128.232.266-.008.132-.118.233-.249.233h-.017c-1.647-.111-3.107 1.037-3.211 2.557-.012.181-.004.367.023.552.017.109-.041.216-.142.263-.102.046-.22.022-.293-.061-.317-.358-.786-.583-1.287-.616-.955-.058-1.774.555-1.893 1.405-.011.071-.051.134-.11.174-.06.04-.135.051-.203.033-.189-.051-.38-.084-.567-.096-1.448-.104-2.688.896-2.776 2.208-.007.131-.117.232-.248.232z" fill="#6d9980"/>
   <g fill="#6d9980">
    <path d="m43.32 61.33c-.02161 0-.04208-.002-.06483-.0061-.1524-.03136-.248-.1669-.2127-.3034.05687-.2185.1399-.4319.2491-.6322.8906-1.641 3.332-2.35 5.404-1.48.1422.05968.169.2908.1019.4172-.06824.1274-.2377.18-.3788.1214-1.793-.7505-3.859-.2296-4.614 1.162-.09099.1669-.1615.3439-.2093.527-.02843.1153-.1444.1942-.2752.1942z" fill="#6d9980" stroke-width="1.073"/>
   </g>
  </g>
  <g transform="matrix(2.002 0 0 1.908 2.786 7.79)" style="paint-order:fill markers stroke">
   <path d="m77.18 41.65h3.537c2.108 0 3.818-1.747 3.818-3.902 0-1.88-1.301-3.449-3.033-3.819.01998-.1649.03397-.3308.03397-.5009 0-2.232-1.771-4.042-3.954-4.042-1.289 0-2.431.6334-3.153 1.61-.1849-2.485-2.356-4.402-4.896-4.083-1.858.2327-3.395 1.7-3.736 3.58-.1099.6032-.09793 1.189.01099 1.737-.4976-.5478-1.207-.8932-1.997-.8932-1.445 0-2.625 1.15-2.718 2.603-.6565-.1482-1.37-.1388-2.121.1492-1.437.551-2.46 1.934-2.52 3.502-.08494 2.226 1.656 4.058 3.815 4.058h8.801m1.638 0h.3597" fill="#fff" style="paint-order:fill markers stroke"/>
   <path d="m78.7 35.95c-.02113 0-.04114-.0024-.06338-.0073-.149-.03764-.2424-.2003-.2079-.3643.04225-.2052.1067-.4007.189-.5816.6716-1.487 2.53-2.033 4.137-1.221.1401.07042.2013.2513.1357.4031-.06449.1518-.2324.2186-.368.1481-1.342-.6787-2.868-.2538-3.406.9398-.06449.1384-.1134.289-.1468.448-.02891.1408-.1434.2356-.2702.2356z" fill="#6d9980" style="paint-order:fill markers stroke"/>
   <path d="m62.88 31.19c-.01173-.01966-.02101-.03945-.02949-.06257-.05279-.1572.02625-.3246.1776-.3736.1889-.06218.3825-.09887.5742-.1118 1.577-.1372 3.268 1.08 3.292 3.245.02147.1651-.0903.3115-.2492.3255-.1583.01497-.3058-.1081-.3247-.2691-.1341-2.209-1.542-2.79-3.1-2.618-.1296.04277-.2699-.01692-.3406-.1348z" fill="#6d9980" style="paint-order:fill markers stroke"/>
  </g>
  <g fill="#fff" stroke-width="4.164">
   <path d="m153.7 49.99h-5.657c-1.08 0-1.956-.9929-1.956-2.216 0-1.223.8763-2.216 1.956-2.216h5.657c1.08 0 1.956.9929 1.956 2.216 0 1.223-.8763 2.216-1.956 2.216z"/>
   <path d="m128.9 42.6h-9.96c-1.08 0-1.956-.9929-1.956-2.216 0-1.223.8763-2.216 1.956-2.216h9.96c1.08 0 1.956.9929 1.956 2.216 0 1.223-.8724 2.216-1.956 2.216z"/>
   <path d="m155.5 42.6h-19.67c-1.08 0-1.956-.9929-1.956-2.216 0-1.223.8763-2.216 1.956-2.216h19.67c1.08 0 1.956.9929 1.956 2.216 0 1.223-.8724 2.216-1.956 2.216z"/>
  </g>
 </g>
</svg>
